<?xml version="1.0" encoding="utf-8" ?>
<svg baseProfile="full" height="1024" version="1.1" width="1024" xmlns="http://www.w3.org/2000/svg" xmlns:ev="http://www.w3.org/2001/xml-events" xmlns:xlink="http://www.w3.org/1999/xlink"><defs /><path d="M 660,681 L 659,682 L 638,682 L 637,683 L 623,683 L 622,684 L 611,684 L 610,685 L 601,685 L 600,686 L 592,686 L 591,687 L 583,687 L 582,688 L 574,688 L 573,689 L 566,689 L 565,690 L 558,690 L 557,691 L 551,691 L 550,692 L 544,692 L 543,693 L 538,693 L 537,694 L 531,694 L 530,695 L 525,695 L 524,696 L 519,696 L 518,697 L 513,697 L 512,698 L 508,698 L 507,699 L 502,699 L 501,700 L 497,700 L 496,701 L 492,701 L 491,702 L 488,702 L 487,703 L 483,703 L 482,704 L 480,704 L 479,705 L 478,705 L 477,706 L 476,706 L 475,707 L 474,707 L 469,712 L 469,714 L 468,715 L 468,716 L 469,717 L 469,718 L 470,719 L 470,720 L 471,720 L 472,721 L 479,721 L 480,720 L 486,720 L 487,719 L 493,719 L 494,718 L 500,718 L 501,717 L 508,717 L 509,716 L 515,716 L 516,715 L 525,715 L 526,714 L 536,714 L 537,713 L 547,713 L 548,712 L 558,712 L 559,711 L 572,711 L 573,710 L 588,710 L 589,709 L 608,709 L 609,708 L 664,708 L 665,709 L 686,709 L 687,710 L 698,710 L 699,711 L 707,711 L 708,712 L 715,712 L 716,713 L 722,713 L 723,714 L 728,714 L 729,715 L 733,715 L 734,716 L 736,716 L 737,717 L 739,717 L 740,718 L 743,718 L 744,719 L 748,719 L 749,718 L 751,718 L 752,717 L 753,717 L 754,716 L 755,716 L 758,713 L 758,712 L 760,710 L 760,708 L 761,707 L 761,698 L 760,697 L 760,696 L 757,693 L 756,693 L 754,691 L 753,691 L 752,690 L 750,690 L 749,689 L 748,689 L 747,688 L 745,688 L 744,687 L 741,687 L 740,686 L 736,686 L 735,685 L 731,685 L 730,684 L 724,684 L 723,683 L 715,683 L 714,682 L 702,682 L 701,681 Z M 363,509 L 362,510 L 354,510 L 353,511 L 347,511 L 346,512 L 341,512 L 340,513 L 336,513 L 335,514 L 332,514 L 331,515 L 328,515 L 327,516 L 323,516 L 322,517 L 320,517 L 319,518 L 316,518 L 315,519 L 313,519 L 312,520 L 310,520 L 309,521 L 307,521 L 306,522 L 304,522 L 303,523 L 301,523 L 300,524 L 299,524 L 298,525 L 296,525 L 295,526 L 294,526 L 293,527 L 292,527 L 291,528 L 289,528 L 288,529 L 287,529 L 286,530 L 285,530 L 284,531 L 283,531 L 282,532 L 281,532 L 280,533 L 279,533 L 278,534 L 277,534 L 276,535 L 275,535 L 273,537 L 272,537 L 271,538 L 270,538 L 268,540 L 267,540 L 266,541 L 265,541 L 263,543 L 262,543 L 260,545 L 259,545 L 256,548 L 255,548 L 252,551 L 251,551 L 240,562 L 240,563 L 237,566 L 237,567 L 235,569 L 235,570 L 234,571 L 234,572 L 233,573 L 233,574 L 232,575 L 232,576 L 231,577 L 231,578 L 230,579 L 230,581 L 229,582 L 229,584 L 228,585 L 228,600 L 229,601 L 229,604 L 230,605 L 230,608 L 231,609 L 231,610 L 232,611 L 232,612 L 233,613 L 233,614 L 234,615 L 234,616 L 240,622 L 241,622 L 243,624 L 244,624 L 245,625 L 248,625 L 249,626 L 261,626 L 262,625 L 265,625 L 266,624 L 268,624 L 269,623 L 270,623 L 271,622 L 272,622 L 273,621 L 274,621 L 276,619 L 277,619 L 281,615 L 281,614 L 283,612 L 283,611 L 284,610 L 284,608 L 283,607 L 283,606 L 282,605 L 276,605 L 275,604 L 273,604 L 272,603 L 271,603 L 270,602 L 269,602 L 267,600 L 267,599 L 265,597 L 265,595 L 264,594 L 264,591 L 263,590 L 263,588 L 264,587 L 264,583 L 265,582 L 265,580 L 266,579 L 266,578 L 267,577 L 267,576 L 268,575 L 268,574 L 270,572 L 270,571 L 276,565 L 276,564 L 279,561 L 280,561 L 286,555 L 287,555 L 290,552 L 291,552 L 292,551 L 293,551 L 295,549 L 296,549 L 297,548 L 298,548 L 299,547 L 300,547 L 301,546 L 302,546 L 303,545 L 304,545 L 305,544 L 306,544 L 307,543 L 308,543 L 309,542 L 310,542 L 311,541 L 312,541 L 313,540 L 314,540 L 315,539 L 317,539 L 318,538 L 319,538 L 320,537 L 322,537 L 323,536 L 325,536 L 326,535 L 328,535 L 329,534 L 331,534 L 332,533 L 334,533 L 335,532 L 338,532 L 339,531 L 342,531 L 343,530 L 347,530 L 348,529 L 353,529 L 354,528 L 362,528 L 363,527 L 369,527 L 370,528 L 377,528 L 378,529 L 381,529 L 382,530 L 383,530 L 384,531 L 385,531 L 386,532 L 387,532 L 388,533 L 389,533 L 391,535 L 392,535 L 395,538 L 396,538 L 399,541 L 399,542 L 402,545 L 402,546 L 403,547 L 403,549 L 404,550 L 404,556 L 405,557 L 404,558 L 404,563 L 403,564 L 403,567 L 402,568 L 402,569 L 401,570 L 401,572 L 400,573 L 400,574 L 399,575 L 399,576 L 398,577 L 398,578 L 397,579 L 397,580 L 395,582 L 395,583 L 391,587 L 391,588 L 382,597 L 381,597 L 377,601 L 376,601 L 373,604 L 372,604 L 371,605 L 370,605 L 368,607 L 367,607 L 365,609 L 364,609 L 363,610 L 362,610 L 361,611 L 360,611 L 359,612 L 358,612 L 357,613 L 355,613 L 354,614 L 353,614 L 352,615 L 350,615 L 349,616 L 348,616 L 347,617 L 344,617 L 343,618 L 340,618 L 339,619 L 335,619 L 334,618 L 335,617 L 335,615 L 336,614 L 336,612 L 337,611 L 337,609 L 338,608 L 338,607 L 339,606 L 339,604 L 340,603 L 340,602 L 341,601 L 341,599 L 342,598 L 342,596 L 343,595 L 343,594 L 344,593 L 344,591 L 345,590 L 345,589 L 346,588 L 346,586 L 347,585 L 347,584 L 348,583 L 348,581 L 349,580 L 349,579 L 350,578 L 350,576 L 351,575 L 351,573 L 352,572 L 352,571 L 353,570 L 353,568 L 354,567 L 354,566 L 355,565 L 355,563 L 356,562 L 356,561 L 357,560 L 357,559 L 358,558 L 358,556 L 359,555 L 359,554 L 360,553 L 360,552 L 361,551 L 361,550 L 362,549 L 362,548 L 363,547 L 363,546 L 364,545 L 364,539 L 361,536 L 359,536 L 358,535 L 345,535 L 344,536 L 342,536 L 341,537 L 340,537 L 339,538 L 338,538 L 337,539 L 336,539 L 331,544 L 331,545 L 330,546 L 330,547 L 329,548 L 329,549 L 328,550 L 328,552 L 327,553 L 327,554 L 326,555 L 326,556 L 325,557 L 325,559 L 324,560 L 324,561 L 323,562 L 323,564 L 322,565 L 322,566 L 321,567 L 321,569 L 320,570 L 320,571 L 319,572 L 319,574 L 318,575 L 318,577 L 317,578 L 317,579 L 316,580 L 316,582 L 315,583 L 315,584 L 314,585 L 314,587 L 313,588 L 313,589 L 312,590 L 312,591 L 311,592 L 311,594 L 310,595 L 310,596 L 309,597 L 309,599 L 308,600 L 308,601 L 307,602 L 307,604 L 306,605 L 306,606 L 305,607 L 305,609 L 304,610 L 304,611 L 303,612 L 303,613 L 302,614 L 302,616 L 301,617 L 301,619 L 300,620 L 300,621 L 299,622 L 299,624 L 298,625 L 298,626 L 297,627 L 297,629 L 296,630 L 296,631 L 295,632 L 295,634 L 294,635 L 294,636 L 293,637 L 293,639 L 292,640 L 292,641 L 291,642 L 291,643 L 290,644 L 290,646 L 289,647 L 289,648 L 288,649 L 288,650 L 287,651 L 287,652 L 286,653 L 286,654 L 285,655 L 285,656 L 284,657 L 284,658 L 283,659 L 283,660 L 282,661 L 282,662 L 281,663 L 281,664 L 280,665 L 280,666 L 279,667 L 279,668 L 277,670 L 277,671 L 276,672 L 276,673 L 274,675 L 274,676 L 269,681 L 269,682 L 261,690 L 260,690 L 256,694 L 255,694 L 253,696 L 252,696 L 250,698 L 249,698 L 248,699 L 247,699 L 246,700 L 244,700 L 243,701 L 229,701 L 228,700 L 227,700 L 226,699 L 225,699 L 222,696 L 222,695 L 220,693 L 220,691 L 219,690 L 219,688 L 217,686 L 212,686 L 210,688 L 209,688 L 208,689 L 208,690 L 206,692 L 206,694 L 205,695 L 205,696 L 204,697 L 204,700 L 203,701 L 203,709 L 204,710 L 204,713 L 205,714 L 205,716 L 206,717 L 206,719 L 208,721 L 208,722 L 209,723 L 209,724 L 214,729 L 215,729 L 217,731 L 218,731 L 219,732 L 220,732 L 221,733 L 222,733 L 223,734 L 225,734 L 226,735 L 229,735 L 230,736 L 234,736 L 235,737 L 246,737 L 247,736 L 252,736 L 253,735 L 255,735 L 256,734 L 258,734 L 259,733 L 261,733 L 262,732 L 263,732 L 264,731 L 265,731 L 266,730 L 267,730 L 268,729 L 269,729 L 271,727 L 272,727 L 274,725 L 275,725 L 280,720 L 281,720 L 289,712 L 289,711 L 294,706 L 294,705 L 297,702 L 297,701 L 299,699 L 299,698 L 301,696 L 301,695 L 302,694 L 302,693 L 304,691 L 304,690 L 305,689 L 305,688 L 306,687 L 306,686 L 307,685 L 307,684 L 308,683 L 308,682 L 309,681 L 309,680 L 310,679 L 310,678 L 311,677 L 311,676 L 312,675 L 312,674 L 313,673 L 313,672 L 314,671 L 314,669 L 315,668 L 315,667 L 316,666 L 316,665 L 317,664 L 317,662 L 318,661 L 318,660 L 319,659 L 319,657 L 320,656 L 320,655 L 321,654 L 321,652 L 322,651 L 322,650 L 323,649 L 323,648 L 324,647 L 324,645 L 325,644 L 325,643 L 326,642 L 326,640 L 327,639 L 327,638 L 328,637 L 330,637 L 332,639 L 333,639 L 337,643 L 337,644 L 339,646 L 339,647 L 340,648 L 340,649 L 341,650 L 341,651 L 342,652 L 342,653 L 343,654 L 343,656 L 344,657 L 344,659 L 345,660 L 345,661 L 346,662 L 346,664 L 347,665 L 347,667 L 348,668 L 348,671 L 349,672 L 349,674 L 350,675 L 350,677 L 351,678 L 351,680 L 352,681 L 352,683 L 353,684 L 353,685 L 354,686 L 354,688 L 355,689 L 355,691 L 356,692 L 356,694 L 357,695 L 357,696 L 358,697 L 358,699 L 359,700 L 359,702 L 360,703 L 360,704 L 361,705 L 361,707 L 362,708 L 362,709 L 363,710 L 363,711 L 365,713 L 365,714 L 366,715 L 366,716 L 368,718 L 368,719 L 371,722 L 371,723 L 377,729 L 378,729 L 380,731 L 381,731 L 383,733 L 385,733 L 386,734 L 387,734 L 388,735 L 390,735 L 391,736 L 394,736 L 395,737 L 403,737 L 404,738 L 405,737 L 414,737 L 415,736 L 418,736 L 419,735 L 421,735 L 422,734 L 424,734 L 425,733 L 426,733 L 427,732 L 428,732 L 430,730 L 431,730 L 433,728 L 434,728 L 439,723 L 440,723 L 443,720 L 443,719 L 445,717 L 445,716 L 446,715 L 446,714 L 447,713 L 447,708 L 445,706 L 439,706 L 438,707 L 436,707 L 435,708 L 434,708 L 433,709 L 430,709 L 429,710 L 415,710 L 414,709 L 412,709 L 411,708 L 410,708 L 409,707 L 408,707 L 407,706 L 406,706 L 395,695 L 395,694 L 393,692 L 393,691 L 391,689 L 391,688 L 390,687 L 390,686 L 389,685 L 389,684 L 388,683 L 388,682 L 387,681 L 387,680 L 386,679 L 386,678 L 385,677 L 385,675 L 384,674 L 384,673 L 383,672 L 383,671 L 382,670 L 382,669 L 381,668 L 381,667 L 380,666 L 380,665 L 379,664 L 379,663 L 378,662 L 378,660 L 377,659 L 377,658 L 375,656 L 375,655 L 374,654 L 374,653 L 373,652 L 373,651 L 372,650 L 372,649 L 370,647 L 370,646 L 369,645 L 369,644 L 367,642 L 367,641 L 365,639 L 365,638 L 362,635 L 362,634 L 358,630 L 359,629 L 362,629 L 363,628 L 367,628 L 368,627 L 371,627 L 372,626 L 374,626 L 375,625 L 376,625 L 377,624 L 379,624 L 380,623 L 381,623 L 382,622 L 383,622 L 384,621 L 385,621 L 386,620 L 387,620 L 388,619 L 389,619 L 390,618 L 391,618 L 393,616 L 394,616 L 395,615 L 396,615 L 398,613 L 399,613 L 401,611 L 402,611 L 404,609 L 405,609 L 409,605 L 410,605 L 421,594 L 421,593 L 424,590 L 424,589 L 427,586 L 427,585 L 428,584 L 428,583 L 430,581 L 430,580 L 431,579 L 431,578 L 432,577 L 432,576 L 433,575 L 433,573 L 434,572 L 434,570 L 435,569 L 435,567 L 436,566 L 436,562 L 437,561 L 437,545 L 436,544 L 436,541 L 435,540 L 435,538 L 434,537 L 434,536 L 433,535 L 433,534 L 432,533 L 432,532 L 430,530 L 430,529 L 422,521 L 421,521 L 419,519 L 418,519 L 416,517 L 415,517 L 414,516 L 413,516 L 412,515 L 410,515 L 409,514 L 408,514 L 407,513 L 405,513 L 404,512 L 401,512 L 400,511 L 397,511 L 396,510 L 390,510 L 389,509 Z M 699,491 L 698,492 L 697,492 L 696,493 L 695,493 L 693,495 L 692,495 L 689,498 L 689,499 L 687,501 L 687,502 L 685,504 L 685,506 L 684,507 L 684,510 L 683,511 L 683,515 L 684,516 L 684,521 L 685,522 L 685,523 L 689,527 L 691,527 L 692,528 L 702,528 L 703,527 L 705,527 L 707,525 L 708,525 L 715,518 L 715,517 L 717,515 L 717,514 L 718,513 L 718,512 L 719,511 L 719,508 L 720,507 L 720,503 L 719,502 L 719,499 L 718,498 L 718,497 L 717,496 L 717,495 L 715,493 L 714,493 L 713,492 L 712,492 L 711,491 Z M 656,476 L 655,477 L 651,477 L 650,478 L 648,478 L 647,479 L 646,479 L 645,480 L 644,480 L 643,481 L 643,482 L 642,483 L 642,484 L 641,485 L 641,487 L 640,488 L 640,490 L 639,491 L 639,492 L 638,493 L 638,495 L 637,496 L 637,498 L 636,499 L 636,501 L 635,502 L 635,504 L 634,505 L 634,507 L 633,508 L 633,510 L 632,511 L 632,513 L 631,514 L 631,515 L 630,516 L 630,518 L 629,519 L 629,521 L 628,522 L 628,524 L 627,525 L 627,527 L 626,528 L 626,529 L 625,530 L 625,532 L 624,533 L 624,535 L 623,536 L 623,537 L 622,538 L 622,540 L 621,541 L 621,543 L 620,544 L 620,545 L 619,546 L 619,548 L 618,549 L 618,551 L 617,552 L 617,554 L 615,556 L 612,553 L 611,553 L 610,552 L 609,552 L 608,551 L 607,551 L 606,550 L 594,550 L 593,551 L 591,551 L 590,552 L 588,552 L 587,553 L 585,553 L 584,554 L 583,554 L 582,555 L 581,555 L 580,556 L 579,556 L 577,558 L 576,558 L 574,560 L 573,560 L 568,565 L 567,565 L 564,568 L 564,569 L 558,575 L 558,576 L 556,578 L 556,579 L 553,582 L 553,583 L 552,584 L 552,585 L 550,587 L 550,588 L 549,589 L 549,590 L 547,592 L 547,593 L 546,594 L 546,595 L 545,596 L 545,597 L 544,598 L 544,599 L 543,600 L 543,601 L 542,602 L 542,603 L 541,604 L 541,605 L 540,606 L 540,607 L 539,608 L 539,610 L 538,611 L 538,612 L 537,613 L 537,615 L 536,616 L 536,618 L 535,619 L 535,621 L 534,622 L 534,623 L 533,624 L 533,625 L 531,627 L 531,628 L 529,630 L 529,631 L 526,634 L 526,635 L 516,645 L 515,645 L 513,647 L 508,647 L 506,645 L 506,643 L 505,642 L 506,641 L 506,636 L 507,635 L 507,633 L 508,632 L 508,630 L 509,629 L 509,627 L 510,626 L 510,624 L 511,623 L 511,622 L 512,621 L 512,619 L 513,618 L 513,616 L 514,615 L 514,614 L 515,613 L 515,611 L 516,610 L 516,609 L 517,608 L 517,607 L 518,606 L 518,605 L 519,604 L 519,602 L 520,601 L 520,600 L 521,599 L 521,598 L 522,597 L 522,596 L 523,595 L 523,594 L 524,593 L 524,592 L 525,591 L 525,590 L 526,589 L 526,588 L 527,587 L 527,586 L 528,585 L 528,584 L 529,583 L 529,582 L 531,580 L 531,579 L 532,578 L 532,577 L 533,576 L 533,575 L 534,574 L 534,573 L 536,571 L 536,567 L 532,563 L 531,563 L 530,562 L 528,562 L 527,561 L 516,561 L 515,562 L 514,562 L 509,567 L 509,568 L 508,569 L 508,570 L 506,572 L 501,567 L 500,567 L 499,566 L 498,566 L 497,565 L 496,565 L 495,564 L 481,564 L 480,565 L 477,565 L 476,566 L 474,566 L 473,567 L 472,567 L 471,568 L 470,568 L 469,569 L 468,569 L 467,570 L 466,570 L 464,572 L 463,572 L 460,575 L 459,575 L 444,590 L 444,591 L 441,594 L 441,595 L 438,598 L 438,599 L 436,601 L 436,602 L 435,603 L 435,604 L 433,606 L 433,607 L 432,608 L 432,609 L 431,610 L 431,611 L 430,612 L 430,613 L 429,614 L 429,615 L 428,616 L 428,617 L 427,618 L 427,619 L 426,620 L 426,622 L 425,623 L 425,624 L 424,625 L 424,627 L 423,628 L 423,630 L 422,631 L 422,634 L 421,635 L 421,637 L 420,638 L 420,642 L 419,643 L 419,649 L 418,650 L 418,661 L 419,662 L 419,666 L 420,667 L 420,668 L 421,669 L 421,670 L 422,671 L 422,672 L 423,673 L 423,674 L 428,679 L 429,679 L 430,680 L 431,680 L 432,681 L 434,681 L 435,682 L 446,682 L 447,681 L 450,681 L 451,680 L 452,680 L 453,679 L 454,679 L 455,678 L 456,678 L 457,677 L 458,677 L 459,676 L 460,676 L 464,672 L 465,672 L 469,668 L 469,667 L 472,664 L 472,663 L 475,660 L 475,659 L 477,657 L 478,658 L 478,662 L 479,663 L 479,665 L 480,666 L 480,667 L 483,670 L 483,671 L 484,672 L 485,672 L 487,674 L 489,674 L 490,675 L 499,675 L 500,674 L 502,674 L 503,673 L 505,673 L 506,672 L 507,672 L 510,669 L 511,669 L 524,656 L 524,655 L 528,651 L 528,650 L 530,648 L 530,647 L 531,646 L 532,647 L 532,650 L 533,651 L 533,653 L 534,654 L 534,655 L 535,656 L 535,657 L 536,658 L 536,659 L 540,663 L 541,663 L 542,664 L 543,664 L 544,665 L 546,665 L 547,666 L 556,666 L 557,665 L 560,665 L 561,664 L 562,664 L 563,663 L 564,663 L 565,662 L 566,662 L 567,661 L 568,661 L 570,659 L 571,659 L 573,657 L 574,657 L 577,654 L 578,654 L 583,649 L 583,648 L 585,646 L 585,645 L 587,643 L 587,642 L 588,641 L 589,642 L 589,646 L 590,647 L 590,648 L 591,649 L 591,650 L 592,651 L 592,652 L 598,658 L 599,658 L 600,659 L 602,659 L 603,660 L 610,660 L 611,659 L 614,659 L 615,658 L 617,658 L 618,657 L 619,657 L 620,656 L 621,656 L 622,655 L 623,655 L 625,653 L 626,653 L 641,638 L 641,637 L 644,634 L 645,635 L 645,641 L 646,642 L 646,644 L 647,645 L 647,647 L 649,649 L 649,650 L 652,653 L 653,653 L 654,654 L 655,654 L 656,655 L 667,655 L 668,654 L 670,654 L 671,653 L 672,653 L 673,652 L 674,652 L 675,651 L 676,651 L 678,649 L 679,649 L 681,647 L 682,647 L 698,631 L 698,630 L 701,627 L 701,626 L 702,625 L 703,626 L 703,628 L 704,629 L 704,632 L 705,633 L 705,635 L 706,636 L 706,637 L 707,638 L 707,639 L 708,640 L 708,641 L 714,647 L 715,647 L 716,648 L 717,648 L 718,649 L 719,649 L 720,650 L 723,650 L 724,651 L 739,651 L 740,650 L 743,650 L 744,649 L 746,649 L 747,648 L 749,648 L 750,647 L 751,647 L 752,646 L 753,646 L 754,645 L 755,645 L 757,643 L 758,643 L 760,641 L 761,641 L 764,638 L 765,638 L 778,625 L 778,624 L 781,621 L 781,620 L 783,618 L 783,617 L 784,616 L 784,615 L 786,613 L 786,612 L 788,610 L 788,609 L 789,608 L 789,607 L 790,606 L 790,605 L 791,604 L 791,603 L 792,602 L 792,601 L 793,600 L 793,598 L 794,597 L 794,595 L 795,594 L 795,592 L 796,591 L 796,590 L 797,589 L 800,589 L 801,588 L 804,588 L 805,587 L 807,587 L 808,586 L 809,586 L 810,585 L 811,585 L 812,584 L 813,584 L 814,583 L 815,583 L 816,582 L 817,582 L 819,580 L 820,580 L 824,576 L 825,576 L 825,575 L 830,570 L 830,569 L 832,567 L 832,565 L 833,564 L 833,562 L 834,561 L 834,558 L 833,557 L 833,556 L 831,554 L 827,554 L 814,567 L 813,567 L 812,568 L 811,568 L 810,569 L 809,569 L 808,570 L 806,570 L 805,571 L 802,571 L 801,572 L 800,571 L 800,559 L 799,558 L 799,554 L 798,553 L 798,550 L 797,549 L 797,548 L 796,547 L 796,546 L 795,545 L 795,544 L 794,543 L 794,542 L 788,536 L 787,536 L 786,535 L 785,535 L 784,534 L 783,534 L 782,533 L 780,533 L 779,532 L 766,532 L 765,533 L 762,533 L 761,534 L 759,534 L 758,535 L 757,535 L 756,536 L 754,536 L 752,538 L 751,538 L 750,539 L 749,539 L 748,540 L 747,540 L 745,542 L 744,542 L 741,545 L 740,545 L 726,559 L 726,560 L 723,563 L 723,564 L 720,567 L 720,568 L 719,569 L 719,570 L 717,572 L 717,573 L 716,574 L 716,575 L 715,576 L 715,577 L 713,579 L 713,580 L 712,581 L 712,582 L 711,583 L 711,585 L 710,586 L 710,587 L 709,588 L 709,589 L 708,590 L 708,591 L 707,592 L 707,594 L 706,595 L 706,597 L 705,598 L 705,601 L 704,602 L 704,604 L 703,605 L 703,606 L 701,608 L 701,609 L 700,610 L 700,611 L 697,614 L 697,615 L 692,620 L 691,620 L 688,623 L 687,623 L 685,625 L 683,625 L 682,626 L 679,626 L 675,622 L 675,616 L 676,615 L 676,611 L 677,610 L 677,608 L 678,607 L 678,605 L 679,604 L 679,602 L 680,601 L 680,599 L 681,598 L 681,597 L 682,596 L 682,594 L 683,593 L 683,592 L 684,591 L 684,590 L 685,589 L 685,587 L 686,586 L 686,585 L 687,584 L 687,583 L 688,582 L 688,580 L 689,579 L 689,578 L 690,577 L 690,576 L 691,575 L 691,573 L 692,572 L 692,571 L 693,570 L 693,569 L 694,568 L 694,567 L 695,566 L 695,565 L 696,564 L 696,563 L 697,562 L 697,561 L 699,559 L 699,558 L 700,557 L 700,556 L 701,555 L 701,554 L 702,553 L 702,548 L 699,545 L 697,545 L 696,544 L 682,544 L 681,545 L 679,545 L 678,546 L 676,546 L 673,549 L 673,550 L 672,551 L 672,552 L 671,553 L 671,555 L 670,556 L 670,557 L 669,558 L 669,560 L 668,561 L 668,562 L 667,563 L 667,565 L 666,566 L 666,568 L 665,569 L 665,570 L 664,571 L 664,573 L 663,574 L 663,575 L 662,576 L 662,578 L 661,579 L 661,580 L 660,581 L 660,583 L 659,584 L 659,585 L 658,586 L 658,588 L 657,589 L 657,590 L 656,591 L 656,593 L 655,594 L 655,595 L 654,596 L 654,597 L 653,598 L 653,599 L 652,600 L 652,601 L 651,602 L 651,603 L 650,604 L 650,605 L 649,606 L 649,607 L 648,608 L 648,609 L 646,611 L 646,612 L 644,614 L 644,615 L 641,618 L 641,619 L 637,623 L 637,624 L 633,628 L 632,628 L 629,631 L 628,631 L 627,632 L 626,632 L 625,633 L 621,633 L 618,630 L 618,625 L 619,624 L 619,622 L 620,621 L 620,618 L 621,617 L 621,615 L 622,614 L 622,612 L 623,611 L 623,609 L 624,608 L 624,606 L 625,605 L 625,604 L 626,603 L 626,601 L 627,600 L 627,598 L 628,597 L 628,596 L 629,595 L 629,593 L 630,592 L 630,590 L 631,589 L 631,588 L 632,587 L 632,585 L 633,584 L 633,583 L 634,582 L 634,580 L 635,579 L 635,578 L 636,577 L 636,575 L 637,574 L 637,573 L 638,572 L 638,570 L 639,569 L 639,568 L 640,567 L 640,565 L 641,564 L 641,563 L 642,562 L 642,560 L 643,559 L 643,558 L 644,557 L 644,555 L 645,554 L 645,552 L 646,551 L 646,550 L 647,549 L 647,547 L 648,546 L 648,545 L 649,544 L 649,542 L 650,541 L 650,539 L 651,538 L 651,537 L 652,536 L 652,534 L 653,533 L 653,532 L 654,531 L 654,529 L 655,528 L 655,526 L 656,525 L 656,524 L 657,523 L 657,521 L 658,520 L 658,519 L 659,518 L 659,516 L 660,515 L 660,513 L 661,512 L 661,511 L 662,510 L 662,508 L 663,507 L 663,506 L 664,505 L 664,503 L 665,502 L 665,501 L 666,500 L 666,498 L 667,497 L 667,496 L 668,495 L 668,494 L 669,493 L 669,492 L 670,491 L 670,489 L 671,488 L 671,487 L 672,486 L 672,485 L 673,484 L 673,482 L 672,481 L 672,480 L 671,479 L 670,479 L 669,478 L 668,478 L 667,477 L 664,477 L 663,476 Z M 483,581 L 484,580 L 490,580 L 493,583 L 493,586 L 494,587 L 494,592 L 493,593 L 493,598 L 492,599 L 492,602 L 491,603 L 491,605 L 490,606 L 490,608 L 489,609 L 489,611 L 488,612 L 488,613 L 487,614 L 487,616 L 486,617 L 486,618 L 485,619 L 485,620 L 484,621 L 484,622 L 483,623 L 483,625 L 482,626 L 482,627 L 481,628 L 481,629 L 480,630 L 480,631 L 479,632 L 479,633 L 478,634 L 478,635 L 477,636 L 477,637 L 476,638 L 476,639 L 475,640 L 475,641 L 473,643 L 473,644 L 471,646 L 471,647 L 468,650 L 468,651 L 464,655 L 463,655 L 462,656 L 461,656 L 460,657 L 459,657 L 458,658 L 453,658 L 452,657 L 451,657 L 449,655 L 449,654 L 448,653 L 448,652 L 447,651 L 447,640 L 448,639 L 448,635 L 449,634 L 449,631 L 450,630 L 450,628 L 451,627 L 451,625 L 452,624 L 452,622 L 453,621 L 453,620 L 454,619 L 454,617 L 455,616 L 455,615 L 456,614 L 456,613 L 457,612 L 457,611 L 458,610 L 458,609 L 460,607 L 460,606 L 461,605 L 461,604 L 463,602 L 463,601 L 465,599 L 465,598 L 468,595 L 468,594 L 480,582 L 481,582 L 482,581 Z M 747,569 L 748,568 L 749,569 L 749,571 L 750,572 L 750,574 L 751,575 L 751,576 L 753,578 L 753,579 L 760,586 L 761,586 L 762,587 L 763,587 L 764,588 L 765,588 L 766,589 L 767,589 L 768,590 L 770,590 L 771,591 L 774,591 L 775,592 L 776,592 L 777,593 L 776,594 L 776,595 L 775,596 L 775,598 L 774,599 L 774,600 L 773,601 L 773,602 L 772,603 L 772,604 L 771,605 L 771,606 L 769,608 L 769,609 L 768,610 L 768,611 L 765,614 L 765,615 L 755,625 L 754,625 L 752,627 L 751,627 L 750,628 L 749,628 L 748,629 L 746,629 L 745,630 L 739,630 L 738,629 L 737,629 L 733,625 L 733,623 L 732,622 L 732,619 L 731,618 L 731,610 L 732,609 L 732,604 L 733,603 L 733,600 L 734,599 L 734,597 L 735,596 L 735,594 L 736,593 L 736,591 L 737,590 L 737,588 L 738,587 L 738,586 L 739,585 L 739,584 L 740,583 L 740,582 L 741,581 L 741,580 L 742,579 L 742,578 L 743,577 L 743,576 L 744,575 L 744,574 L 745,573 L 745,572 L 747,570 Z M 599,568 L 600,567 L 603,567 L 604,568 L 605,568 L 607,570 L 607,574 L 606,575 L 606,578 L 605,579 L 605,581 L 604,582 L 604,584 L 603,585 L 603,587 L 602,588 L 602,590 L 601,591 L 601,593 L 600,594 L 600,596 L 599,597 L 599,598 L 598,599 L 598,601 L 597,602 L 597,604 L 596,605 L 596,606 L 595,607 L 595,609 L 594,610 L 594,612 L 593,613 L 593,614 L 592,615 L 592,617 L 591,618 L 591,619 L 590,620 L 590,621 L 589,622 L 589,623 L 587,625 L 587,626 L 585,628 L 585,629 L 575,639 L 574,639 L 573,640 L 572,640 L 571,641 L 567,641 L 566,640 L 565,640 L 561,636 L 561,633 L 560,632 L 560,629 L 561,628 L 561,621 L 562,620 L 562,617 L 563,616 L 563,614 L 564,613 L 564,611 L 565,610 L 565,609 L 566,608 L 566,606 L 567,605 L 567,604 L 568,603 L 568,602 L 569,601 L 569,600 L 570,599 L 570,598 L 571,597 L 571,596 L 572,595 L 572,594 L 573,593 L 573,592 L 575,590 L 575,589 L 576,588 L 576,587 L 578,585 L 578,584 L 580,582 L 580,581 L 589,572 L 590,572 L 592,570 L 593,570 L 594,569 L 595,569 L 596,568 Z M 772,547 L 773,546 L 775,546 L 779,550 L 779,551 L 780,552 L 780,554 L 781,555 L 781,572 L 780,573 L 779,573 L 778,572 L 775,572 L 774,571 L 773,571 L 772,570 L 771,570 L 768,567 L 768,566 L 767,565 L 767,554 L 768,553 L 768,551 L 770,549 L 770,548 L 771,547 Z M 512,351 L 511,352 L 508,352 L 507,353 L 505,353 L 504,354 L 503,354 L 502,355 L 501,355 L 501,356 L 500,357 L 500,359 L 499,360 L 499,362 L 498,363 L 498,365 L 497,366 L 497,368 L 496,369 L 496,371 L 495,372 L 495,374 L 494,375 L 494,377 L 493,378 L 493,380 L 492,381 L 492,382 L 491,383 L 491,385 L 490,386 L 490,388 L 489,389 L 489,391 L 488,392 L 488,394 L 487,395 L 487,397 L 486,398 L 486,400 L 485,401 L 485,403 L 484,404 L 484,406 L 483,407 L 483,409 L 482,410 L 482,412 L 481,413 L 481,414 L 480,415 L 480,417 L 479,418 L 479,419 L 478,420 L 478,421 L 477,422 L 477,423 L 476,424 L 476,425 L 474,427 L 474,428 L 472,430 L 472,431 L 468,435 L 468,436 L 462,442 L 461,442 L 459,444 L 458,444 L 457,445 L 453,445 L 450,442 L 450,433 L 451,432 L 451,429 L 452,428 L 452,425 L 453,424 L 453,422 L 454,421 L 454,419 L 455,418 L 455,417 L 456,416 L 456,414 L 457,413 L 457,411 L 458,410 L 458,409 L 459,408 L 459,406 L 460,405 L 460,403 L 461,402 L 461,401 L 462,400 L 462,398 L 463,397 L 463,396 L 464,395 L 464,393 L 465,392 L 465,390 L 466,389 L 466,388 L 467,387 L 467,385 L 468,384 L 468,383 L 469,382 L 469,380 L 470,379 L 470,377 L 471,376 L 471,375 L 472,374 L 472,373 L 473,372 L 473,370 L 474,369 L 474,368 L 475,367 L 475,366 L 476,365 L 476,361 L 475,360 L 474,360 L 473,359 L 472,359 L 471,358 L 460,358 L 459,359 L 456,359 L 455,360 L 454,360 L 453,361 L 451,361 L 449,363 L 448,363 L 448,364 L 447,365 L 447,367 L 446,368 L 446,369 L 445,370 L 445,371 L 444,372 L 444,374 L 443,375 L 443,376 L 442,377 L 442,379 L 441,380 L 441,382 L 440,383 L 440,384 L 439,385 L 439,387 L 438,388 L 438,390 L 437,391 L 437,393 L 436,394 L 436,395 L 435,396 L 435,398 L 434,399 L 434,400 L 433,401 L 433,403 L 432,404 L 432,405 L 431,406 L 431,408 L 430,409 L 430,410 L 429,411 L 429,413 L 428,414 L 428,415 L 427,416 L 427,417 L 426,418 L 426,420 L 425,421 L 425,422 L 424,423 L 424,424 L 423,425 L 423,426 L 422,427 L 422,429 L 420,431 L 420,432 L 418,434 L 418,435 L 414,439 L 414,440 L 408,446 L 407,446 L 404,449 L 403,449 L 402,450 L 401,450 L 400,451 L 398,451 L 397,450 L 396,450 L 395,449 L 395,448 L 394,447 L 394,444 L 395,443 L 395,441 L 396,440 L 396,437 L 397,436 L 397,434 L 398,433 L 398,432 L 399,431 L 399,429 L 400,428 L 400,427 L 401,426 L 401,424 L 402,423 L 402,422 L 403,421 L 403,419 L 404,418 L 404,417 L 405,416 L 405,414 L 406,413 L 406,412 L 407,411 L 407,409 L 408,408 L 408,407 L 409,406 L 409,405 L 410,404 L 410,403 L 411,402 L 411,401 L 412,400 L 412,398 L 413,397 L 413,396 L 414,395 L 414,394 L 415,393 L 415,392 L 416,391 L 416,390 L 417,389 L 417,388 L 418,387 L 418,386 L 419,385 L 419,384 L 420,383 L 420,382 L 421,381 L 421,380 L 422,379 L 422,378 L 423,377 L 423,376 L 424,375 L 424,374 L 425,373 L 425,372 L 426,371 L 426,370 L 425,369 L 425,368 L 422,365 L 421,365 L 420,364 L 418,364 L 417,363 L 408,363 L 407,364 L 404,364 L 403,365 L 402,365 L 399,368 L 399,369 L 397,371 L 397,372 L 396,373 L 396,374 L 395,375 L 394,375 L 388,369 L 387,369 L 386,368 L 385,368 L 384,367 L 373,367 L 372,368 L 370,368 L 369,369 L 367,369 L 366,370 L 364,370 L 363,371 L 362,371 L 361,372 L 360,372 L 358,374 L 357,374 L 355,376 L 354,376 L 352,378 L 351,378 L 339,390 L 339,391 L 335,395 L 335,396 L 332,399 L 332,400 L 329,403 L 329,404 L 327,406 L 327,407 L 325,409 L 325,410 L 324,411 L 324,412 L 323,413 L 323,414 L 321,416 L 321,417 L 320,418 L 320,419 L 319,420 L 319,421 L 318,422 L 318,424 L 317,425 L 317,426 L 316,427 L 316,429 L 315,430 L 315,431 L 314,432 L 314,434 L 313,435 L 313,437 L 312,438 L 312,440 L 311,441 L 311,444 L 310,445 L 310,448 L 309,449 L 309,453 L 308,454 L 308,470 L 309,471 L 309,474 L 310,475 L 310,476 L 311,477 L 311,478 L 317,484 L 318,484 L 319,485 L 320,485 L 321,486 L 325,486 L 326,487 L 330,487 L 331,486 L 335,486 L 336,485 L 338,485 L 339,484 L 341,484 L 342,483 L 343,483 L 344,482 L 345,482 L 347,480 L 348,480 L 351,477 L 352,477 L 359,470 L 359,469 L 362,466 L 362,465 L 364,463 L 364,462 L 365,461 L 366,462 L 366,464 L 367,465 L 367,468 L 368,469 L 368,471 L 370,473 L 370,474 L 371,475 L 372,475 L 374,477 L 375,477 L 376,478 L 388,478 L 389,477 L 391,477 L 392,476 L 393,476 L 394,475 L 395,475 L 396,474 L 397,474 L 400,471 L 401,471 L 412,460 L 412,459 L 415,456 L 415,455 L 417,453 L 417,452 L 418,451 L 419,451 L 420,452 L 420,458 L 421,459 L 421,461 L 422,462 L 422,463 L 423,464 L 423,465 L 428,470 L 429,470 L 430,471 L 441,471 L 442,470 L 444,470 L 445,469 L 447,469 L 448,468 L 449,468 L 450,467 L 451,467 L 452,466 L 453,466 L 454,465 L 455,465 L 456,464 L 457,464 L 459,462 L 460,462 L 469,453 L 470,454 L 470,455 L 469,456 L 469,458 L 468,459 L 468,461 L 467,462 L 467,464 L 466,465 L 466,466 L 465,467 L 465,468 L 464,469 L 464,471 L 462,473 L 462,474 L 461,475 L 461,476 L 459,478 L 459,479 L 451,487 L 450,487 L 448,489 L 447,489 L 446,490 L 444,490 L 443,491 L 434,491 L 433,490 L 432,490 L 431,489 L 430,489 L 427,486 L 427,485 L 426,484 L 423,484 L 421,486 L 421,487 L 420,488 L 420,490 L 419,491 L 419,502 L 420,503 L 420,505 L 421,506 L 421,507 L 427,513 L 428,513 L 429,514 L 431,514 L 432,515 L 447,515 L 448,514 L 451,514 L 452,513 L 454,513 L 455,512 L 457,512 L 458,511 L 459,511 L 460,510 L 461,510 L 463,508 L 464,508 L 465,507 L 466,507 L 468,505 L 469,505 L 476,498 L 476,497 L 479,494 L 479,493 L 481,491 L 481,490 L 482,489 L 482,488 L 484,486 L 484,485 L 485,484 L 485,483 L 486,482 L 486,481 L 487,480 L 487,478 L 488,477 L 488,476 L 489,475 L 489,474 L 490,473 L 490,471 L 491,470 L 491,469 L 492,468 L 492,466 L 493,465 L 493,463 L 494,462 L 494,460 L 495,459 L 495,457 L 496,456 L 496,454 L 497,453 L 497,451 L 498,450 L 498,448 L 499,447 L 499,445 L 500,444 L 500,441 L 501,440 L 501,438 L 502,437 L 502,435 L 503,434 L 503,432 L 504,431 L 504,429 L 505,428 L 505,426 L 506,425 L 506,423 L 507,422 L 507,420 L 508,419 L 508,416 L 509,415 L 509,413 L 510,412 L 510,410 L 511,409 L 511,407 L 512,406 L 512,404 L 513,403 L 513,401 L 514,400 L 514,398 L 515,397 L 515,395 L 516,394 L 516,392 L 517,391 L 517,389 L 518,388 L 518,385 L 519,384 L 519,382 L 520,381 L 520,379 L 521,378 L 521,376 L 522,375 L 522,373 L 523,372 L 523,370 L 524,369 L 524,367 L 525,366 L 525,364 L 526,363 L 526,361 L 527,360 L 527,358 L 528,357 L 528,356 L 525,353 L 524,353 L 523,352 L 521,352 L 520,351 Z M 373,386 L 374,385 L 380,385 L 381,386 L 382,386 L 383,387 L 383,388 L 384,389 L 384,398 L 383,399 L 383,402 L 382,403 L 382,406 L 381,407 L 381,409 L 380,410 L 380,411 L 379,412 L 379,414 L 378,415 L 378,416 L 377,417 L 377,419 L 376,420 L 376,421 L 375,422 L 375,423 L 374,424 L 374,425 L 373,426 L 373,428 L 372,429 L 372,430 L 371,431 L 371,432 L 370,433 L 370,434 L 369,435 L 369,436 L 368,437 L 368,438 L 366,440 L 366,441 L 365,442 L 365,443 L 364,444 L 364,445 L 362,447 L 362,448 L 360,450 L 360,451 L 357,454 L 357,455 L 353,459 L 352,459 L 350,461 L 349,461 L 348,462 L 341,462 L 337,458 L 337,456 L 336,455 L 336,448 L 337,447 L 337,443 L 338,442 L 338,439 L 339,438 L 339,436 L 340,435 L 340,433 L 341,432 L 341,430 L 342,429 L 342,428 L 343,427 L 343,425 L 344,424 L 344,423 L 345,422 L 345,421 L 346,420 L 346,419 L 347,418 L 347,417 L 348,416 L 348,415 L 350,413 L 350,412 L 351,411 L 351,410 L 353,408 L 353,407 L 355,405 L 355,404 L 357,402 L 357,401 L 359,399 L 359,398 L 369,388 L 370,388 L 372,386 Z M 318,281 L 317,282 L 314,282 L 313,283 L 312,283 L 311,284 L 310,284 L 308,286 L 307,286 L 301,292 L 301,293 L 298,296 L 298,297 L 297,298 L 297,299 L 296,300 L 296,301 L 294,303 L 294,305 L 293,306 L 293,308 L 292,309 L 292,316 L 294,318 L 297,318 L 300,321 L 300,322 L 302,324 L 302,325 L 303,326 L 303,328 L 304,329 L 304,332 L 305,333 L 305,352 L 304,353 L 304,359 L 303,360 L 303,364 L 302,365 L 302,370 L 301,371 L 301,374 L 300,375 L 300,378 L 299,379 L 299,382 L 298,383 L 298,385 L 297,386 L 297,389 L 296,390 L 296,392 L 295,393 L 295,395 L 294,396 L 294,398 L 293,399 L 293,401 L 292,402 L 292,404 L 291,405 L 291,406 L 290,407 L 290,409 L 289,410 L 289,412 L 288,413 L 288,414 L 287,415 L 287,417 L 286,418 L 286,419 L 285,420 L 285,421 L 284,422 L 284,424 L 283,425 L 283,426 L 282,427 L 282,428 L 281,429 L 281,430 L 280,431 L 280,432 L 279,433 L 279,434 L 278,435 L 278,436 L 276,438 L 276,439 L 275,440 L 275,441 L 274,442 L 274,443 L 272,445 L 272,446 L 271,447 L 271,448 L 269,450 L 269,451 L 267,453 L 267,454 L 263,458 L 263,459 L 252,470 L 251,470 L 249,472 L 248,472 L 247,473 L 246,473 L 245,474 L 243,474 L 242,475 L 237,475 L 236,474 L 235,474 L 231,470 L 231,469 L 230,468 L 230,463 L 229,462 L 229,458 L 230,457 L 230,448 L 231,447 L 231,444 L 232,443 L 232,440 L 233,439 L 233,436 L 234,435 L 234,432 L 235,431 L 235,429 L 236,428 L 236,425 L 237,424 L 237,422 L 238,421 L 238,419 L 239,418 L 239,416 L 240,415 L 240,413 L 241,412 L 241,410 L 242,409 L 242,407 L 243,406 L 243,404 L 244,403 L 244,401 L 245,400 L 245,398 L 246,397 L 246,395 L 247,394 L 247,392 L 248,391 L 248,390 L 249,389 L 249,387 L 250,386 L 250,384 L 251,383 L 251,382 L 252,381 L 252,379 L 253,378 L 253,376 L 254,375 L 254,374 L 255,373 L 255,371 L 256,370 L 256,369 L 257,368 L 257,366 L 258,365 L 258,363 L 259,362 L 259,357 L 255,353 L 254,353 L 253,352 L 249,352 L 248,351 L 244,351 L 243,352 L 239,352 L 238,353 L 236,353 L 235,354 L 233,354 L 229,358 L 229,359 L 228,360 L 228,362 L 227,363 L 227,365 L 226,366 L 226,368 L 225,369 L 225,371 L 224,372 L 224,374 L 223,375 L 223,377 L 222,378 L 222,380 L 221,381 L 221,383 L 220,384 L 220,386 L 219,387 L 219,389 L 218,390 L 218,392 L 217,393 L 217,395 L 216,396 L 216,398 L 215,399 L 215,400 L 214,401 L 214,403 L 213,404 L 213,406 L 212,407 L 212,409 L 211,410 L 211,411 L 210,412 L 210,414 L 209,415 L 209,417 L 208,418 L 208,419 L 207,420 L 207,422 L 206,423 L 206,425 L 205,426 L 205,427 L 204,428 L 204,429 L 203,430 L 203,432 L 202,433 L 202,434 L 201,435 L 201,437 L 200,438 L 200,439 L 199,440 L 199,441 L 198,442 L 198,443 L 197,444 L 197,446 L 196,447 L 196,448 L 195,449 L 195,450 L 194,451 L 194,452 L 193,453 L 193,454 L 192,455 L 192,456 L 191,457 L 191,458 L 189,460 L 189,461 L 188,462 L 188,463 L 186,465 L 186,466 L 184,468 L 184,469 L 174,479 L 173,479 L 172,480 L 171,480 L 170,481 L 168,481 L 167,482 L 162,482 L 161,481 L 160,481 L 157,478 L 157,476 L 156,475 L 156,462 L 157,461 L 157,456 L 158,455 L 158,450 L 159,449 L 159,446 L 160,445 L 160,442 L 161,441 L 161,438 L 162,437 L 162,435 L 163,434 L 163,431 L 164,430 L 164,428 L 165,427 L 165,425 L 166,424 L 166,421 L 167,420 L 167,418 L 168,417 L 168,415 L 169,414 L 169,412 L 170,411 L 170,410 L 171,409 L 171,407 L 172,406 L 172,404 L 173,403 L 173,401 L 174,400 L 174,398 L 175,397 L 175,396 L 176,395 L 176,393 L 177,392 L 177,391 L 178,390 L 178,388 L 179,387 L 179,385 L 180,384 L 180,383 L 181,382 L 181,380 L 182,379 L 182,378 L 183,377 L 183,376 L 184,375 L 184,373 L 185,372 L 185,371 L 186,370 L 186,369 L 187,368 L 187,366 L 188,365 L 188,364 L 189,363 L 189,362 L 190,361 L 190,360 L 191,359 L 191,357 L 192,356 L 192,355 L 193,354 L 193,353 L 194,352 L 194,351 L 195,350 L 195,349 L 196,348 L 196,347 L 197,346 L 197,345 L 198,344 L 198,342 L 199,341 L 199,340 L 200,339 L 200,338 L 201,337 L 201,336 L 202,335 L 202,334 L 203,333 L 203,332 L 205,330 L 205,329 L 207,327 L 207,326 L 210,323 L 210,322 L 212,320 L 212,316 L 210,314 L 198,314 L 197,315 L 194,315 L 193,316 L 190,316 L 189,317 L 186,317 L 185,318 L 182,318 L 181,319 L 176,319 L 175,320 L 170,320 L 169,321 L 165,321 L 164,322 L 159,322 L 158,323 L 154,323 L 153,324 L 149,324 L 148,325 L 145,325 L 144,326 L 142,326 L 141,327 L 138,327 L 137,328 L 135,328 L 134,329 L 132,329 L 131,330 L 129,330 L 128,331 L 125,331 L 124,332 L 122,332 L 121,333 L 120,333 L 119,334 L 117,334 L 116,335 L 115,335 L 114,336 L 113,336 L 112,337 L 111,337 L 110,338 L 109,338 L 108,339 L 107,339 L 106,340 L 105,340 L 104,341 L 103,341 L 102,342 L 101,342 L 100,343 L 99,343 L 98,344 L 97,344 L 95,346 L 94,346 L 92,348 L 91,348 L 89,350 L 88,350 L 84,354 L 83,354 L 74,363 L 74,364 L 71,367 L 71,368 L 69,370 L 69,371 L 68,372 L 68,373 L 67,374 L 67,375 L 66,376 L 66,378 L 65,379 L 65,382 L 64,383 L 64,398 L 65,399 L 65,402 L 66,403 L 66,404 L 67,405 L 67,406 L 68,407 L 68,408 L 69,409 L 69,410 L 71,412 L 71,413 L 77,419 L 78,419 L 79,420 L 80,420 L 81,421 L 82,421 L 83,422 L 85,422 L 86,423 L 89,423 L 90,424 L 95,424 L 96,423 L 100,423 L 101,422 L 103,422 L 104,421 L 106,421 L 107,420 L 108,420 L 109,419 L 110,419 L 113,416 L 114,416 L 121,409 L 121,404 L 120,403 L 119,403 L 118,402 L 111,402 L 110,401 L 109,401 L 103,395 L 103,394 L 102,393 L 102,390 L 101,389 L 101,386 L 102,385 L 102,381 L 103,380 L 103,379 L 104,378 L 104,377 L 105,376 L 105,375 L 106,374 L 106,373 L 108,371 L 108,370 L 118,360 L 119,360 L 122,357 L 123,357 L 125,355 L 126,355 L 127,354 L 128,354 L 130,352 L 131,352 L 132,351 L 133,351 L 134,350 L 135,350 L 136,349 L 138,349 L 139,348 L 140,348 L 141,347 L 142,347 L 143,346 L 145,346 L 146,345 L 147,345 L 148,344 L 150,344 L 151,343 L 154,343 L 155,342 L 157,342 L 158,341 L 161,341 L 162,340 L 165,340 L 166,339 L 169,339 L 170,338 L 171,338 L 172,339 L 171,340 L 171,341 L 170,342 L 170,343 L 169,344 L 169,346 L 168,347 L 168,348 L 167,349 L 167,350 L 166,351 L 166,352 L 165,353 L 165,355 L 164,356 L 164,357 L 163,358 L 163,359 L 162,360 L 162,361 L 161,362 L 161,363 L 160,364 L 160,365 L 159,366 L 159,367 L 158,368 L 158,369 L 157,370 L 157,371 L 156,372 L 156,373 L 155,374 L 155,375 L 154,376 L 154,377 L 153,378 L 153,379 L 152,380 L 152,381 L 151,382 L 151,383 L 150,384 L 150,385 L 149,386 L 149,387 L 148,388 L 148,389 L 147,390 L 147,391 L 146,392 L 146,393 L 145,394 L 145,395 L 144,396 L 144,397 L 143,398 L 143,400 L 142,401 L 142,402 L 141,403 L 141,404 L 140,405 L 140,406 L 139,407 L 139,409 L 138,410 L 138,411 L 137,412 L 137,413 L 136,414 L 136,416 L 135,417 L 135,418 L 134,419 L 134,421 L 133,422 L 133,423 L 132,424 L 132,426 L 131,427 L 131,428 L 130,429 L 130,431 L 129,432 L 129,434 L 128,435 L 128,436 L 127,437 L 127,439 L 126,440 L 126,443 L 125,444 L 125,446 L 124,447 L 124,449 L 123,450 L 123,452 L 122,453 L 122,455 L 121,456 L 121,460 L 120,461 L 120,467 L 119,468 L 119,475 L 118,476 L 118,496 L 119,497 L 119,501 L 120,502 L 120,504 L 121,505 L 121,507 L 122,508 L 122,509 L 123,510 L 123,511 L 126,514 L 126,515 L 128,517 L 129,517 L 132,520 L 133,520 L 134,521 L 135,521 L 136,522 L 138,522 L 139,523 L 150,523 L 151,522 L 154,522 L 155,521 L 157,521 L 158,520 L 159,520 L 160,519 L 161,519 L 162,518 L 163,518 L 165,516 L 166,516 L 170,512 L 171,512 L 179,504 L 179,503 L 184,498 L 184,497 L 188,493 L 188,492 L 191,489 L 191,488 L 193,486 L 193,485 L 195,483 L 195,482 L 196,481 L 197,482 L 197,486 L 198,487 L 198,489 L 199,490 L 199,493 L 200,494 L 200,495 L 201,496 L 201,497 L 203,499 L 203,500 L 206,503 L 207,503 L 210,506 L 211,506 L 212,507 L 213,507 L 214,508 L 216,508 L 217,509 L 232,509 L 233,508 L 236,508 L 237,507 L 239,507 L 240,506 L 241,506 L 242,505 L 243,505 L 244,504 L 245,504 L 246,503 L 247,503 L 249,501 L 250,501 L 254,497 L 255,497 L 272,480 L 272,479 L 276,475 L 276,474 L 279,471 L 279,470 L 281,468 L 281,467 L 283,465 L 283,464 L 285,462 L 285,461 L 287,459 L 287,458 L 289,456 L 289,455 L 291,453 L 291,452 L 293,450 L 293,449 L 294,448 L 294,447 L 296,445 L 296,444 L 297,443 L 297,442 L 299,440 L 299,439 L 300,438 L 300,437 L 301,436 L 301,435 L 302,434 L 302,433 L 303,432 L 303,431 L 305,429 L 305,428 L 306,427 L 306,426 L 307,425 L 307,424 L 308,423 L 308,422 L 309,421 L 309,420 L 310,419 L 310,418 L 311,417 L 311,416 L 312,415 L 312,414 L 313,413 L 313,411 L 314,410 L 314,409 L 315,408 L 315,407 L 316,406 L 316,405 L 317,404 L 317,403 L 318,402 L 318,400 L 319,399 L 319,398 L 320,397 L 320,396 L 321,395 L 321,393 L 322,392 L 322,391 L 323,390 L 323,388 L 324,387 L 324,386 L 325,385 L 325,383 L 326,382 L 326,381 L 327,380 L 327,378 L 328,377 L 328,375 L 329,374 L 329,373 L 330,372 L 330,370 L 331,369 L 331,367 L 332,366 L 332,364 L 333,363 L 333,361 L 334,360 L 334,358 L 335,357 L 335,355 L 336,354 L 336,352 L 337,351 L 337,348 L 338,347 L 338,344 L 339,343 L 339,340 L 340,339 L 340,336 L 341,335 L 341,331 L 342,330 L 342,324 L 343,323 L 343,316 L 344,315 L 344,301 L 343,300 L 343,296 L 342,295 L 342,293 L 341,292 L 341,291 L 334,284 L 333,284 L 332,283 L 331,283 L 330,282 L 328,282 L 327,281 Z M 598,262 L 597,263 L 592,263 L 591,264 L 588,264 L 587,265 L 586,265 L 585,266 L 583,266 L 578,271 L 578,272 L 577,273 L 577,274 L 576,275 L 576,276 L 575,277 L 575,278 L 574,279 L 574,280 L 573,281 L 573,282 L 572,283 L 572,284 L 571,285 L 571,287 L 570,288 L 570,289 L 569,290 L 569,291 L 568,292 L 568,294 L 567,295 L 567,296 L 566,297 L 566,299 L 565,300 L 565,301 L 564,302 L 564,304 L 563,305 L 563,306 L 562,307 L 562,309 L 561,310 L 561,311 L 560,312 L 560,314 L 559,315 L 559,316 L 558,317 L 558,319 L 557,320 L 557,321 L 556,322 L 556,324 L 555,325 L 555,326 L 554,327 L 554,329 L 553,330 L 553,331 L 552,332 L 552,334 L 551,335 L 551,336 L 550,337 L 550,339 L 549,340 L 549,342 L 548,343 L 548,344 L 547,345 L 547,347 L 546,348 L 546,349 L 545,350 L 545,352 L 544,353 L 544,355 L 543,356 L 543,357 L 542,358 L 542,360 L 541,361 L 541,363 L 540,364 L 540,366 L 539,367 L 539,369 L 538,370 L 538,372 L 537,373 L 537,374 L 536,375 L 536,378 L 535,379 L 535,381 L 534,382 L 534,384 L 533,385 L 533,387 L 532,388 L 532,390 L 531,391 L 531,394 L 530,395 L 530,397 L 529,398 L 529,401 L 528,402 L 528,404 L 527,405 L 527,408 L 526,409 L 526,412 L 525,413 L 525,417 L 524,418 L 524,422 L 523,423 L 523,430 L 522,431 L 522,437 L 523,438 L 523,443 L 524,444 L 524,447 L 525,448 L 525,449 L 526,450 L 526,451 L 527,452 L 527,453 L 533,459 L 534,459 L 535,460 L 536,460 L 537,461 L 539,461 L 540,462 L 543,462 L 544,463 L 557,463 L 558,462 L 561,462 L 562,461 L 564,461 L 565,460 L 566,460 L 567,459 L 568,459 L 569,458 L 570,458 L 571,457 L 572,457 L 574,455 L 575,455 L 578,452 L 579,452 L 593,438 L 593,437 L 597,433 L 597,432 L 599,430 L 599,429 L 601,427 L 601,426 L 603,424 L 603,423 L 605,421 L 605,420 L 606,419 L 606,418 L 607,417 L 607,416 L 608,415 L 608,414 L 609,413 L 609,412 L 610,411 L 610,410 L 611,409 L 611,408 L 612,407 L 612,406 L 613,405 L 613,404 L 614,403 L 614,401 L 615,400 L 615,398 L 616,397 L 616,395 L 617,394 L 617,392 L 618,391 L 618,389 L 619,388 L 619,385 L 620,384 L 620,380 L 621,379 L 621,374 L 622,373 L 622,361 L 621,360 L 621,356 L 620,355 L 620,353 L 619,352 L 619,351 L 618,350 L 618,349 L 613,344 L 612,344 L 611,343 L 609,343 L 608,342 L 607,342 L 606,341 L 603,341 L 602,340 L 595,340 L 594,341 L 591,341 L 590,342 L 588,342 L 587,343 L 585,343 L 584,344 L 583,344 L 582,345 L 581,345 L 580,346 L 579,346 L 577,348 L 576,348 L 572,352 L 571,351 L 571,350 L 572,349 L 572,348 L 573,347 L 573,346 L 574,345 L 574,344 L 575,343 L 575,341 L 576,340 L 576,339 L 577,338 L 577,337 L 578,336 L 578,334 L 579,333 L 579,332 L 580,331 L 580,330 L 581,329 L 581,327 L 582,326 L 582,325 L 583,324 L 583,323 L 584,322 L 584,321 L 585,320 L 585,318 L 586,317 L 586,316 L 587,315 L 587,314 L 588,313 L 588,312 L 589,311 L 589,310 L 590,309 L 590,308 L 591,307 L 591,306 L 592,305 L 592,303 L 593,302 L 593,301 L 594,300 L 594,299 L 595,298 L 595,297 L 596,296 L 596,295 L 597,294 L 597,293 L 598,292 L 598,291 L 599,290 L 599,289 L 600,288 L 600,287 L 601,286 L 601,285 L 603,283 L 603,282 L 604,281 L 604,280 L 605,279 L 605,278 L 607,276 L 607,275 L 608,274 L 608,273 L 610,271 L 610,269 L 611,268 L 610,267 L 610,266 L 609,265 L 608,265 L 607,264 L 606,264 L 605,263 L 601,263 L 600,262 Z M 579,363 L 580,362 L 587,362 L 592,367 L 592,369 L 593,370 L 593,374 L 594,375 L 594,380 L 593,381 L 593,387 L 592,388 L 592,391 L 591,392 L 591,395 L 590,396 L 590,398 L 589,399 L 589,400 L 588,401 L 588,403 L 587,404 L 587,405 L 586,406 L 586,407 L 585,408 L 585,410 L 584,411 L 584,412 L 583,413 L 583,414 L 581,416 L 581,417 L 579,419 L 579,420 L 577,422 L 577,423 L 564,436 L 563,436 L 562,437 L 561,437 L 560,438 L 557,438 L 556,437 L 555,437 L 552,434 L 552,433 L 551,432 L 551,431 L 550,430 L 550,416 L 551,415 L 551,411 L 552,410 L 552,407 L 553,406 L 553,403 L 554,402 L 554,400 L 555,399 L 555,397 L 556,396 L 556,394 L 557,393 L 557,392 L 558,391 L 558,389 L 559,388 L 559,387 L 560,386 L 560,385 L 561,384 L 561,383 L 562,382 L 562,381 L 564,379 L 564,378 L 565,377 L 565,376 L 568,373 L 568,372 L 576,364 L 577,364 L 578,363 Z M 900,236 L 899,237 L 895,237 L 894,238 L 892,238 L 891,239 L 890,239 L 889,240 L 888,240 L 887,241 L 886,241 L 885,242 L 884,242 L 882,244 L 881,244 L 881,245 L 879,247 L 879,248 L 878,249 L 878,250 L 877,251 L 877,253 L 876,254 L 876,256 L 875,257 L 875,259 L 874,260 L 874,262 L 873,263 L 873,266 L 872,267 L 872,268 L 871,269 L 871,271 L 870,272 L 870,274 L 869,275 L 869,277 L 868,278 L 868,280 L 867,281 L 867,283 L 866,284 L 866,286 L 865,287 L 865,288 L 864,289 L 864,291 L 863,292 L 863,294 L 862,295 L 862,296 L 861,297 L 861,299 L 860,300 L 860,302 L 859,303 L 859,305 L 858,306 L 858,307 L 857,308 L 857,310 L 856,311 L 856,312 L 855,313 L 855,315 L 854,316 L 854,317 L 853,318 L 853,320 L 852,321 L 852,322 L 851,323 L 851,325 L 850,326 L 850,327 L 849,328 L 849,330 L 848,331 L 848,332 L 847,333 L 847,335 L 846,336 L 846,337 L 845,338 L 845,340 L 844,341 L 844,342 L 843,343 L 843,345 L 842,346 L 842,348 L 841,349 L 841,350 L 840,351 L 840,353 L 839,354 L 839,355 L 838,356 L 838,358 L 837,359 L 837,360 L 836,361 L 836,363 L 835,364 L 835,365 L 834,366 L 834,368 L 832,370 L 832,371 L 831,372 L 831,373 L 829,375 L 829,376 L 827,378 L 827,379 L 825,381 L 825,382 L 822,385 L 822,386 L 818,390 L 818,391 L 806,403 L 805,403 L 802,406 L 801,406 L 799,408 L 798,408 L 797,409 L 796,409 L 795,410 L 794,410 L 793,411 L 790,411 L 789,412 L 779,412 L 778,411 L 776,411 L 775,410 L 774,410 L 773,409 L 772,409 L 770,407 L 770,406 L 769,405 L 769,404 L 768,403 L 768,401 L 767,400 L 767,387 L 768,386 L 768,382 L 769,381 L 769,378 L 770,377 L 770,375 L 771,374 L 771,372 L 772,371 L 772,369 L 773,368 L 773,367 L 774,366 L 774,365 L 775,364 L 775,363 L 776,362 L 776,361 L 777,360 L 777,359 L 778,358 L 778,357 L 780,355 L 780,354 L 781,353 L 781,352 L 784,349 L 784,348 L 790,342 L 790,341 L 792,339 L 793,339 L 797,335 L 798,335 L 799,334 L 800,334 L 801,333 L 806,333 L 808,335 L 808,343 L 807,344 L 807,346 L 806,347 L 806,348 L 801,353 L 801,354 L 798,357 L 798,358 L 797,359 L 797,361 L 796,362 L 796,367 L 800,371 L 807,371 L 808,370 L 810,370 L 811,369 L 812,369 L 813,368 L 814,368 L 817,365 L 818,365 L 821,362 L 821,361 L 824,358 L 824,357 L 825,356 L 825,355 L 826,354 L 826,353 L 827,352 L 827,349 L 828,348 L 828,335 L 827,334 L 827,332 L 826,331 L 826,329 L 824,327 L 824,326 L 822,324 L 822,323 L 821,323 L 818,320 L 817,320 L 815,318 L 813,318 L 812,317 L 799,317 L 798,318 L 796,318 L 795,319 L 793,319 L 792,320 L 791,320 L 790,321 L 789,321 L 788,322 L 787,322 L 786,323 L 785,323 L 784,324 L 783,324 L 781,326 L 780,326 L 778,328 L 777,328 L 774,331 L 773,331 L 759,345 L 759,346 L 755,350 L 755,351 L 753,353 L 753,354 L 751,356 L 751,357 L 750,358 L 750,359 L 748,361 L 748,362 L 747,363 L 747,364 L 746,365 L 746,366 L 745,367 L 745,368 L 744,369 L 744,371 L 743,372 L 743,373 L 742,374 L 742,375 L 741,376 L 741,378 L 740,379 L 740,381 L 739,382 L 739,385 L 738,386 L 738,390 L 737,391 L 737,393 L 735,395 L 735,396 L 731,400 L 731,401 L 720,412 L 719,412 L 716,415 L 715,415 L 714,416 L 711,416 L 708,413 L 708,409 L 709,408 L 709,405 L 710,404 L 710,402 L 711,401 L 711,399 L 712,398 L 712,397 L 713,396 L 713,394 L 714,393 L 714,392 L 715,391 L 715,389 L 716,388 L 716,387 L 717,386 L 717,385 L 718,384 L 718,382 L 719,381 L 719,380 L 720,379 L 720,378 L 721,377 L 721,375 L 722,374 L 722,373 L 723,372 L 723,371 L 724,370 L 724,369 L 725,368 L 725,367 L 726,366 L 726,365 L 727,364 L 727,363 L 728,362 L 728,361 L 729,360 L 729,359 L 730,358 L 730,357 L 731,356 L 731,355 L 732,354 L 732,353 L 733,352 L 733,351 L 734,350 L 734,349 L 735,348 L 735,347 L 736,346 L 736,345 L 737,344 L 737,343 L 739,341 L 739,340 L 740,339 L 740,338 L 741,337 L 741,334 L 740,333 L 740,332 L 738,330 L 737,330 L 736,329 L 733,329 L 732,328 L 722,328 L 721,329 L 718,329 L 717,330 L 716,330 L 714,332 L 714,333 L 713,334 L 713,335 L 711,337 L 711,338 L 710,339 L 709,338 L 709,337 L 704,332 L 703,332 L 702,331 L 701,331 L 700,330 L 696,330 L 695,329 L 690,329 L 689,330 L 685,330 L 684,331 L 681,331 L 680,332 L 679,332 L 678,333 L 677,333 L 676,334 L 675,334 L 674,335 L 673,335 L 671,337 L 670,337 L 668,339 L 667,339 L 664,342 L 663,342 L 650,355 L 650,356 L 646,360 L 646,361 L 643,364 L 643,365 L 641,367 L 641,368 L 639,370 L 639,371 L 638,372 L 638,373 L 636,375 L 636,376 L 635,377 L 635,378 L 634,379 L 634,380 L 633,381 L 633,382 L 632,383 L 632,384 L 631,385 L 631,386 L 630,387 L 630,388 L 629,389 L 629,390 L 628,391 L 628,393 L 627,394 L 627,395 L 626,396 L 626,398 L 625,399 L 625,401 L 624,402 L 624,405 L 623,406 L 623,409 L 622,410 L 622,414 L 621,415 L 621,420 L 620,421 L 620,431 L 621,432 L 621,436 L 622,437 L 622,438 L 623,439 L 623,440 L 624,441 L 624,442 L 629,447 L 630,447 L 631,448 L 632,448 L 633,449 L 635,449 L 636,450 L 647,450 L 648,449 L 650,449 L 651,448 L 653,448 L 654,447 L 655,447 L 656,446 L 657,446 L 658,445 L 659,445 L 661,443 L 662,443 L 665,440 L 666,440 L 670,436 L 670,435 L 675,430 L 675,429 L 678,426 L 679,427 L 679,432 L 680,433 L 680,435 L 681,436 L 681,437 L 686,442 L 687,442 L 688,443 L 690,443 L 691,444 L 694,444 L 695,443 L 700,443 L 701,442 L 703,442 L 704,441 L 705,441 L 706,440 L 707,440 L 708,439 L 709,439 L 711,437 L 712,437 L 713,436 L 714,436 L 731,419 L 731,418 L 734,415 L 734,414 L 735,413 L 735,412 L 736,411 L 737,412 L 737,414 L 738,415 L 738,417 L 739,418 L 739,419 L 740,420 L 740,421 L 741,422 L 741,423 L 744,426 L 744,427 L 745,428 L 746,428 L 749,431 L 750,431 L 752,433 L 754,433 L 755,434 L 756,434 L 757,435 L 760,435 L 761,436 L 767,436 L 768,437 L 773,437 L 774,436 L 779,436 L 780,435 L 783,435 L 784,434 L 787,434 L 788,433 L 789,433 L 790,432 L 791,432 L 792,431 L 793,431 L 794,430 L 795,430 L 796,429 L 797,429 L 799,427 L 800,427 L 804,423 L 805,423 L 812,416 L 813,416 L 816,413 L 816,412 L 818,410 L 819,411 L 819,412 L 818,413 L 818,414 L 817,415 L 817,417 L 816,418 L 816,419 L 815,420 L 815,421 L 814,422 L 814,424 L 813,425 L 813,426 L 814,427 L 814,428 L 815,429 L 816,429 L 817,430 L 818,430 L 819,431 L 821,431 L 822,432 L 831,432 L 832,431 L 834,431 L 835,430 L 837,430 L 838,429 L 839,429 L 841,427 L 841,426 L 842,425 L 842,423 L 843,422 L 843,421 L 844,420 L 844,418 L 845,417 L 845,415 L 846,414 L 846,413 L 847,412 L 847,410 L 848,409 L 848,408 L 849,407 L 849,405 L 850,404 L 850,403 L 851,402 L 851,400 L 852,399 L 852,398 L 853,397 L 853,395 L 854,394 L 854,393 L 855,392 L 855,390 L 856,389 L 856,388 L 857,387 L 857,385 L 859,383 L 861,385 L 861,387 L 862,388 L 862,389 L 863,390 L 863,391 L 864,392 L 864,393 L 865,394 L 865,396 L 866,397 L 866,398 L 867,399 L 867,400 L 868,401 L 868,402 L 869,403 L 869,404 L 870,405 L 870,407 L 872,409 L 872,410 L 873,411 L 873,412 L 874,413 L 874,414 L 876,416 L 876,417 L 884,425 L 885,425 L 886,426 L 887,426 L 888,427 L 890,427 L 891,428 L 905,428 L 906,427 L 908,427 L 909,426 L 910,426 L 911,425 L 912,425 L 913,424 L 914,424 L 915,423 L 916,423 L 918,421 L 919,421 L 928,412 L 928,411 L 930,409 L 930,408 L 932,406 L 932,405 L 933,404 L 933,403 L 934,402 L 934,401 L 935,400 L 935,394 L 932,391 L 931,391 L 930,392 L 929,392 L 923,398 L 922,398 L 920,400 L 918,400 L 917,401 L 909,401 L 908,400 L 907,400 L 906,399 L 905,399 L 897,391 L 897,390 L 894,387 L 894,386 L 892,384 L 892,383 L 891,382 L 891,381 L 890,380 L 890,379 L 889,378 L 889,377 L 890,376 L 891,376 L 892,375 L 893,375 L 894,374 L 895,374 L 896,373 L 897,373 L 898,372 L 899,372 L 900,371 L 901,371 L 902,370 L 903,370 L 904,369 L 905,369 L 906,368 L 907,368 L 908,367 L 909,367 L 911,365 L 912,365 L 914,363 L 915,363 L 918,360 L 919,360 L 928,351 L 928,350 L 930,348 L 930,347 L 932,345 L 932,344 L 933,343 L 933,342 L 934,341 L 934,340 L 935,339 L 935,336 L 936,335 L 936,331 L 937,330 L 937,325 L 936,324 L 936,321 L 935,320 L 935,319 L 934,318 L 934,317 L 929,312 L 928,312 L 927,311 L 926,311 L 925,310 L 922,310 L 921,309 L 914,309 L 913,310 L 911,310 L 910,311 L 908,311 L 907,312 L 905,312 L 904,313 L 903,313 L 902,314 L 901,314 L 900,315 L 899,315 L 898,316 L 897,316 L 895,318 L 894,318 L 892,320 L 891,320 L 886,325 L 885,325 L 878,332 L 878,333 L 876,335 L 875,334 L 875,333 L 876,332 L 876,331 L 877,330 L 877,329 L 878,328 L 878,326 L 879,325 L 879,324 L 880,323 L 880,322 L 881,321 L 881,319 L 882,318 L 882,317 L 883,316 L 883,314 L 884,313 L 884,312 L 885,311 L 885,309 L 886,308 L 886,307 L 887,306 L 887,305 L 888,304 L 888,302 L 889,301 L 889,300 L 890,299 L 890,298 L 891,297 L 891,295 L 892,294 L 892,293 L 893,292 L 893,290 L 894,289 L 894,288 L 895,287 L 895,286 L 896,285 L 896,283 L 897,282 L 897,281 L 898,280 L 898,279 L 899,278 L 899,276 L 900,275 L 900,274 L 901,273 L 901,271 L 902,270 L 902,269 L 903,268 L 903,267 L 904,266 L 904,265 L 905,264 L 905,262 L 906,261 L 906,260 L 907,259 L 907,258 L 908,257 L 908,256 L 909,255 L 909,254 L 910,253 L 910,252 L 911,251 L 911,250 L 912,249 L 912,248 L 913,247 L 913,246 L 914,245 L 914,244 L 915,243 L 915,240 L 912,237 L 911,237 L 910,236 Z M 689,348 L 690,347 L 693,347 L 694,348 L 695,348 L 698,351 L 698,352 L 699,353 L 699,358 L 698,359 L 698,363 L 697,364 L 697,367 L 696,368 L 696,370 L 695,371 L 695,372 L 694,373 L 694,375 L 693,376 L 693,377 L 692,378 L 692,379 L 691,380 L 691,381 L 690,382 L 690,384 L 689,385 L 689,386 L 688,387 L 688,388 L 687,389 L 687,390 L 686,391 L 686,392 L 685,393 L 685,394 L 684,395 L 684,396 L 683,397 L 683,398 L 682,399 L 682,400 L 680,402 L 680,403 L 679,404 L 679,405 L 677,407 L 677,408 L 675,410 L 675,411 L 673,413 L 673,414 L 671,416 L 671,417 L 664,424 L 663,424 L 662,425 L 661,425 L 660,426 L 653,426 L 649,422 L 649,421 L 648,420 L 648,410 L 649,409 L 649,406 L 650,405 L 650,402 L 651,401 L 651,399 L 652,398 L 652,397 L 653,396 L 653,394 L 654,393 L 654,392 L 655,391 L 655,390 L 656,389 L 656,388 L 657,387 L 657,386 L 658,385 L 658,383 L 660,381 L 660,380 L 661,379 L 661,378 L 662,377 L 662,376 L 664,374 L 664,373 L 666,371 L 666,370 L 668,368 L 668,367 L 670,365 L 670,364 L 674,360 L 674,359 L 680,353 L 681,353 L 684,350 L 685,350 L 687,348 Z M 894,332 L 895,331 L 903,331 L 906,334 L 906,336 L 907,337 L 907,338 L 906,339 L 906,342 L 905,343 L 905,344 L 904,345 L 904,346 L 902,348 L 902,349 L 895,356 L 894,356 L 890,360 L 889,360 L 887,362 L 886,362 L 885,363 L 884,363 L 883,364 L 882,364 L 881,365 L 880,365 L 879,366 L 878,366 L 877,367 L 876,367 L 875,368 L 874,368 L 873,369 L 871,369 L 870,370 L 867,370 L 866,371 L 865,371 L 864,370 L 864,369 L 866,367 L 866,366 L 867,365 L 867,364 L 868,363 L 868,362 L 869,361 L 869,360 L 870,359 L 870,358 L 872,356 L 872,355 L 873,354 L 873,353 L 875,351 L 875,350 L 879,346 L 879,345 L 889,335 L 890,335 L 893,332 Z" fill="white" fill-rule="evenodd" /></svg>