<?xml version="1.0" encoding="utf-8" ?>
<svg baseProfile="full" height="1024" version="1.1" width="1024" xmlns="http://www.w3.org/2000/svg" xmlns:ev="http://www.w3.org/2001/xml-events" xmlns:xlink="http://www.w3.org/1999/xlink"><defs /><path d="M 648,651 L 647,652 L 626,652 L 625,653 L 612,653 L 611,654 L 598,654 L 597,655 L 587,655 L 586,656 L 576,656 L 575,657 L 567,657 L 566,658 L 558,658 L 557,659 L 551,659 L 550,660 L 542,660 L 541,661 L 535,661 L 534,662 L 528,662 L 527,663 L 522,663 L 521,664 L 515,664 L 514,665 L 509,665 L 508,666 L 503,666 L 502,667 L 497,667 L 496,668 L 492,668 L 491,669 L 486,669 L 485,670 L 482,670 L 481,671 L 480,671 L 479,672 L 479,673 L 478,674 L 478,675 L 477,676 L 477,680 L 478,681 L 478,682 L 480,684 L 492,684 L 493,683 L 502,683 L 503,682 L 511,682 L 512,681 L 522,681 L 523,680 L 534,680 L 535,679 L 548,679 L 549,678 L 565,678 L 566,677 L 585,677 L 586,676 L 676,676 L 677,677 L 697,677 L 698,678 L 711,678 L 712,679 L 723,679 L 724,680 L 734,680 L 735,681 L 743,681 L 744,682 L 753,682 L 754,683 L 761,683 L 762,684 L 768,684 L 769,685 L 778,685 L 779,684 L 781,684 L 782,683 L 783,683 L 784,682 L 785,682 L 790,677 L 790,676 L 791,675 L 791,666 L 790,665 L 790,664 L 787,661 L 786,661 L 784,659 L 783,659 L 782,658 L 780,658 L 779,657 L 775,657 L 774,656 L 766,656 L 765,655 L 758,655 L 757,654 L 746,654 L 745,653 L 733,653 L 732,652 L 713,652 L 712,651 Z M 378,488 L 377,489 L 370,489 L 369,490 L 363,490 L 362,491 L 357,491 L 356,492 L 353,492 L 352,493 L 348,493 L 347,494 L 343,494 L 342,495 L 340,495 L 339,496 L 336,496 L 335,497 L 332,497 L 331,498 L 329,498 L 328,499 L 325,499 L 324,500 L 322,500 L 321,501 L 319,501 L 318,502 L 316,502 L 315,503 L 313,503 L 312,504 L 310,504 L 309,505 L 308,505 L 307,506 L 305,506 L 304,507 L 303,507 L 302,508 L 301,508 L 300,509 L 298,509 L 297,510 L 296,510 L 295,511 L 294,511 L 293,512 L 292,512 L 291,513 L 290,513 L 289,514 L 288,514 L 286,516 L 285,516 L 284,517 L 283,517 L 282,518 L 281,518 L 279,520 L 278,520 L 276,522 L 275,522 L 272,525 L 271,525 L 269,527 L 268,527 L 264,531 L 263,531 L 249,545 L 249,546 L 246,549 L 246,550 L 244,552 L 244,553 L 242,555 L 242,556 L 241,557 L 241,558 L 240,559 L 240,560 L 239,561 L 239,562 L 238,563 L 238,564 L 237,565 L 237,567 L 236,568 L 236,569 L 235,570 L 235,573 L 234,574 L 234,577 L 233,578 L 233,592 L 234,593 L 234,596 L 235,597 L 235,599 L 236,600 L 236,601 L 237,602 L 237,603 L 239,605 L 239,606 L 243,610 L 244,610 L 246,612 L 247,612 L 248,613 L 249,613 L 250,614 L 252,614 L 253,615 L 265,615 L 266,614 L 269,614 L 270,613 L 271,613 L 272,612 L 273,612 L 274,611 L 275,611 L 283,603 L 283,602 L 286,599 L 286,598 L 287,597 L 287,596 L 288,595 L 288,590 L 286,588 L 282,588 L 281,589 L 276,589 L 275,588 L 273,588 L 271,586 L 270,586 L 269,585 L 269,584 L 267,582 L 267,580 L 266,579 L 266,572 L 267,571 L 267,568 L 268,567 L 268,565 L 269,564 L 269,563 L 271,561 L 271,560 L 272,559 L 272,558 L 275,555 L 275,554 L 289,540 L 290,540 L 294,536 L 295,536 L 297,534 L 298,534 L 300,532 L 301,532 L 303,530 L 304,530 L 306,528 L 307,528 L 308,527 L 309,527 L 311,525 L 312,525 L 313,524 L 314,524 L 315,523 L 316,523 L 317,522 L 318,522 L 319,521 L 320,521 L 321,520 L 323,520 L 324,519 L 325,519 L 326,518 L 328,518 L 329,517 L 330,517 L 331,516 L 333,516 L 334,515 L 336,515 L 337,514 L 339,514 L 340,513 L 342,513 L 343,512 L 345,512 L 346,511 L 349,511 L 350,510 L 353,510 L 354,509 L 359,509 L 360,508 L 363,508 L 364,509 L 363,510 L 362,510 L 361,511 L 360,511 L 359,512 L 358,512 L 356,514 L 355,514 L 353,516 L 352,516 L 349,519 L 348,519 L 340,527 L 340,528 L 336,532 L 336,533 L 334,535 L 334,536 L 332,538 L 332,539 L 330,541 L 330,542 L 329,543 L 329,544 L 327,546 L 327,547 L 326,548 L 326,549 L 324,551 L 324,552 L 323,553 L 323,554 L 322,555 L 322,556 L 321,557 L 321,558 L 319,560 L 319,561 L 318,562 L 318,563 L 317,564 L 317,565 L 316,566 L 316,567 L 315,568 L 315,569 L 314,570 L 314,571 L 313,572 L 313,573 L 312,574 L 312,575 L 311,576 L 311,577 L 310,578 L 310,580 L 309,581 L 309,582 L 308,583 L 308,584 L 307,585 L 307,586 L 306,587 L 306,588 L 305,589 L 305,590 L 304,591 L 304,592 L 303,593 L 303,594 L 302,595 L 302,597 L 301,598 L 301,599 L 300,600 L 300,601 L 299,602 L 299,603 L 298,604 L 298,605 L 297,606 L 297,607 L 296,608 L 296,609 L 295,610 L 295,612 L 294,613 L 294,614 L 293,615 L 293,616 L 292,617 L 292,618 L 291,619 L 291,620 L 290,621 L 290,622 L 289,623 L 289,624 L 288,625 L 288,626 L 287,627 L 287,628 L 286,629 L 286,630 L 285,631 L 285,632 L 284,633 L 284,634 L 283,635 L 283,636 L 282,637 L 282,638 L 281,639 L 281,640 L 280,641 L 280,642 L 278,644 L 278,645 L 277,646 L 277,647 L 275,649 L 275,650 L 272,653 L 272,654 L 269,657 L 269,658 L 261,666 L 260,666 L 257,669 L 256,669 L 254,671 L 253,671 L 252,672 L 251,672 L 250,673 L 249,673 L 248,674 L 247,674 L 246,675 L 244,675 L 243,676 L 239,676 L 238,677 L 230,677 L 229,676 L 226,676 L 225,675 L 224,675 L 223,674 L 222,674 L 216,668 L 216,667 L 215,666 L 215,664 L 214,663 L 214,661 L 213,660 L 209,660 L 207,662 L 206,662 L 205,663 L 205,664 L 203,666 L 203,668 L 202,669 L 202,672 L 201,673 L 201,684 L 202,685 L 202,688 L 203,689 L 203,690 L 204,691 L 204,692 L 205,693 L 205,694 L 207,696 L 207,697 L 214,704 L 215,704 L 216,705 L 217,705 L 218,706 L 219,706 L 220,707 L 222,707 L 223,708 L 226,708 L 227,709 L 244,709 L 245,708 L 249,708 L 250,707 L 252,707 L 253,706 L 255,706 L 256,705 L 258,705 L 259,704 L 260,704 L 261,703 L 262,703 L 263,702 L 264,702 L 265,701 L 266,701 L 268,699 L 269,699 L 271,697 L 272,697 L 277,692 L 278,692 L 283,687 L 283,686 L 288,681 L 288,680 L 291,677 L 291,676 L 293,674 L 293,673 L 295,671 L 295,670 L 297,668 L 297,667 L 299,665 L 299,664 L 300,663 L 300,662 L 301,661 L 301,660 L 302,659 L 302,658 L 304,656 L 304,655 L 305,654 L 305,653 L 306,652 L 306,651 L 307,650 L 307,649 L 308,648 L 308,647 L 309,646 L 309,645 L 310,644 L 310,643 L 311,642 L 311,641 L 312,640 L 312,639 L 313,638 L 313,636 L 314,635 L 314,634 L 315,633 L 315,632 L 316,631 L 316,630 L 317,629 L 317,628 L 318,627 L 318,625 L 319,624 L 319,623 L 320,622 L 320,621 L 321,620 L 321,619 L 322,618 L 322,616 L 323,615 L 323,614 L 324,613 L 324,612 L 325,611 L 325,609 L 326,608 L 326,607 L 327,606 L 327,605 L 328,604 L 332,608 L 332,609 L 334,611 L 334,612 L 336,614 L 336,615 L 337,616 L 337,617 L 339,619 L 339,620 L 340,621 L 340,622 L 341,623 L 341,624 L 343,626 L 343,627 L 344,628 L 344,629 L 345,630 L 345,631 L 346,632 L 346,633 L 347,634 L 347,635 L 348,636 L 348,637 L 349,638 L 349,639 L 351,641 L 351,642 L 352,643 L 352,644 L 353,645 L 353,646 L 354,647 L 354,648 L 356,650 L 356,651 L 357,652 L 357,653 L 359,655 L 359,656 L 360,657 L 360,658 L 363,661 L 363,662 L 365,664 L 365,665 L 368,668 L 368,669 L 383,684 L 384,684 L 386,686 L 387,686 L 389,688 L 390,688 L 391,689 L 392,689 L 393,690 L 395,690 L 396,691 L 398,691 L 399,692 L 402,692 L 403,693 L 424,693 L 425,692 L 428,692 L 429,691 L 431,691 L 432,690 L 434,690 L 435,689 L 436,689 L 437,688 L 438,688 L 439,687 L 440,687 L 442,685 L 443,685 L 453,675 L 453,674 L 455,672 L 455,671 L 456,670 L 456,667 L 455,666 L 455,665 L 454,665 L 453,664 L 452,664 L 451,665 L 447,665 L 446,666 L 443,666 L 442,667 L 438,667 L 437,668 L 421,668 L 420,667 L 417,667 L 416,666 L 414,666 L 413,665 L 412,665 L 411,664 L 410,664 L 408,662 L 407,662 L 405,660 L 404,660 L 401,657 L 400,657 L 393,650 L 393,649 L 389,645 L 389,644 L 386,641 L 386,640 L 384,638 L 384,637 L 382,635 L 382,634 L 380,632 L 380,631 L 378,629 L 378,628 L 376,626 L 376,625 L 374,623 L 374,622 L 372,620 L 372,619 L 369,616 L 369,615 L 367,613 L 367,612 L 365,610 L 365,609 L 362,606 L 362,605 L 360,603 L 360,602 L 361,601 L 365,601 L 366,600 L 369,600 L 370,599 L 373,599 L 374,598 L 376,598 L 377,597 L 379,597 L 380,596 L 382,596 L 383,595 L 385,595 L 386,594 L 387,594 L 388,593 L 389,593 L 390,592 L 391,592 L 392,591 L 393,591 L 394,590 L 395,590 L 396,589 L 397,589 L 398,588 L 399,588 L 400,587 L 401,587 L 403,585 L 404,585 L 405,584 L 406,584 L 408,582 L 409,582 L 411,580 L 412,580 L 415,577 L 416,577 L 423,570 L 424,570 L 425,569 L 425,568 L 431,562 L 431,561 L 434,558 L 434,557 L 436,555 L 436,554 L 437,553 L 437,552 L 438,551 L 438,550 L 439,549 L 439,548 L 440,547 L 440,545 L 441,544 L 441,543 L 442,542 L 442,539 L 443,538 L 443,535 L 444,534 L 444,519 L 443,518 L 443,515 L 442,514 L 442,513 L 441,512 L 441,510 L 440,509 L 440,508 L 438,506 L 438,505 L 431,498 L 430,498 L 428,496 L 427,496 L 426,495 L 425,495 L 424,494 L 423,494 L 422,493 L 421,493 L 420,492 L 418,492 L 417,491 L 414,491 L 413,490 L 410,490 L 409,489 L 404,489 L 403,488 Z M 380,506 L 384,506 L 385,507 L 391,507 L 392,508 L 395,508 L 396,509 L 397,509 L 398,510 L 399,510 L 400,511 L 401,511 L 408,518 L 408,519 L 409,520 L 409,522 L 410,523 L 410,535 L 409,536 L 409,539 L 408,540 L 408,542 L 407,543 L 407,544 L 406,545 L 406,546 L 405,547 L 405,548 L 404,549 L 404,550 L 403,551 L 403,552 L 400,555 L 400,556 L 397,559 L 397,560 L 388,569 L 387,569 L 383,573 L 382,573 L 379,576 L 378,576 L 376,578 L 375,578 L 373,580 L 372,580 L 371,581 L 370,581 L 368,583 L 367,583 L 366,584 L 365,584 L 364,585 L 363,585 L 362,586 L 360,586 L 359,587 L 358,587 L 357,588 L 355,588 L 354,589 L 352,589 L 351,590 L 348,590 L 347,591 L 343,591 L 342,592 L 336,592 L 335,593 L 334,593 L 333,592 L 333,591 L 334,590 L 334,589 L 335,588 L 335,587 L 336,586 L 336,584 L 337,583 L 337,582 L 338,581 L 338,580 L 339,579 L 339,578 L 340,577 L 340,576 L 341,575 L 341,573 L 342,572 L 342,571 L 343,570 L 343,569 L 344,568 L 344,567 L 345,566 L 345,564 L 346,563 L 346,562 L 347,561 L 347,560 L 348,559 L 348,558 L 349,557 L 349,556 L 350,555 L 350,554 L 351,553 L 351,552 L 352,551 L 352,550 L 353,549 L 353,548 L 354,547 L 354,546 L 355,545 L 355,544 L 356,543 L 356,542 L 357,541 L 357,540 L 358,539 L 358,538 L 360,536 L 360,535 L 361,534 L 361,533 L 363,531 L 363,530 L 364,529 L 364,528 L 366,526 L 366,525 L 368,523 L 368,522 L 370,520 L 370,519 L 373,516 L 373,515 L 378,510 L 378,508 Z M 698,475 L 697,476 L 696,476 L 695,477 L 694,477 L 686,485 L 686,486 L 685,487 L 685,488 L 684,489 L 684,490 L 683,491 L 683,494 L 682,495 L 682,501 L 683,502 L 683,503 L 684,504 L 684,505 L 685,506 L 686,506 L 688,508 L 691,508 L 692,509 L 698,509 L 699,508 L 701,508 L 702,507 L 703,507 L 705,505 L 706,505 L 712,499 L 712,498 L 713,497 L 713,495 L 714,494 L 714,493 L 715,492 L 715,485 L 714,484 L 714,482 L 713,481 L 713,480 L 710,477 L 709,477 L 708,476 L 707,476 L 706,475 Z M 651,460 L 650,461 L 645,461 L 644,462 L 642,462 L 641,463 L 639,463 L 635,467 L 635,468 L 634,469 L 634,471 L 633,472 L 633,473 L 632,474 L 632,475 L 631,476 L 631,477 L 630,478 L 630,479 L 629,480 L 629,482 L 628,483 L 628,484 L 627,485 L 627,486 L 626,487 L 626,488 L 625,489 L 625,491 L 624,492 L 624,493 L 623,494 L 623,496 L 622,497 L 622,498 L 621,499 L 621,501 L 620,502 L 620,503 L 619,504 L 619,505 L 618,506 L 618,508 L 617,509 L 617,510 L 616,511 L 616,513 L 615,514 L 615,516 L 614,517 L 614,518 L 613,519 L 613,521 L 612,522 L 612,524 L 611,525 L 611,526 L 610,527 L 610,529 L 609,530 L 605,526 L 604,526 L 603,525 L 602,525 L 601,524 L 598,524 L 597,523 L 588,523 L 587,524 L 585,524 L 584,525 L 582,525 L 581,526 L 580,526 L 578,528 L 577,528 L 576,529 L 575,529 L 572,532 L 571,532 L 558,545 L 558,546 L 555,549 L 555,550 L 552,553 L 552,554 L 550,556 L 550,557 L 549,558 L 549,559 L 547,561 L 547,562 L 546,563 L 546,564 L 545,565 L 545,566 L 544,567 L 544,568 L 543,569 L 543,570 L 542,571 L 542,572 L 541,573 L 541,574 L 540,575 L 540,577 L 539,578 L 539,579 L 538,580 L 538,582 L 537,583 L 537,585 L 536,586 L 536,587 L 535,588 L 535,589 L 532,592 L 532,593 L 529,596 L 529,597 L 526,600 L 526,601 L 517,610 L 516,610 L 515,611 L 514,611 L 513,612 L 510,612 L 507,609 L 507,604 L 508,603 L 508,601 L 509,600 L 509,598 L 510,597 L 510,595 L 511,594 L 511,592 L 512,591 L 512,589 L 513,588 L 513,587 L 514,586 L 514,585 L 515,584 L 515,582 L 516,581 L 516,580 L 517,579 L 517,577 L 518,576 L 518,575 L 519,574 L 519,573 L 520,572 L 520,571 L 521,570 L 521,569 L 522,568 L 522,566 L 523,565 L 523,564 L 524,563 L 524,562 L 525,561 L 525,560 L 527,558 L 527,557 L 528,556 L 528,555 L 529,554 L 529,553 L 530,552 L 530,551 L 531,550 L 531,549 L 532,548 L 532,547 L 533,546 L 533,545 L 534,544 L 534,542 L 533,541 L 533,540 L 529,536 L 528,536 L 527,535 L 526,535 L 525,534 L 522,534 L 521,533 L 518,533 L 517,534 L 515,534 L 514,535 L 513,535 L 509,539 L 509,540 L 508,541 L 508,542 L 507,543 L 506,543 L 505,542 L 505,540 L 501,536 L 500,536 L 499,535 L 498,535 L 497,534 L 494,534 L 493,533 L 485,533 L 484,534 L 481,534 L 480,535 L 479,535 L 478,536 L 476,536 L 475,537 L 474,537 L 473,538 L 472,538 L 470,540 L 469,540 L 468,541 L 467,541 L 464,544 L 463,544 L 459,548 L 458,548 L 449,557 L 449,558 L 444,563 L 444,564 L 442,566 L 442,567 L 440,569 L 440,570 L 438,572 L 438,573 L 437,574 L 437,575 L 435,577 L 435,578 L 434,579 L 434,580 L 433,581 L 433,582 L 432,583 L 432,584 L 431,585 L 431,586 L 430,587 L 430,589 L 429,590 L 429,591 L 428,592 L 428,594 L 427,595 L 427,597 L 426,598 L 426,600 L 425,601 L 425,604 L 424,605 L 424,609 L 423,610 L 423,626 L 424,627 L 424,630 L 425,631 L 425,632 L 426,633 L 426,634 L 427,635 L 427,636 L 431,640 L 432,640 L 433,641 L 435,641 L 436,642 L 439,642 L 440,643 L 447,643 L 448,642 L 451,642 L 452,641 L 454,641 L 455,640 L 456,640 L 457,639 L 458,639 L 459,638 L 460,638 L 462,636 L 463,636 L 475,624 L 475,623 L 477,621 L 477,620 L 479,618 L 479,617 L 480,616 L 481,617 L 481,624 L 482,625 L 482,628 L 483,629 L 483,630 L 488,635 L 489,635 L 490,636 L 494,636 L 495,637 L 497,637 L 498,636 L 503,636 L 504,635 L 506,635 L 507,634 L 508,634 L 509,633 L 510,633 L 512,631 L 513,631 L 515,629 L 516,629 L 527,618 L 527,617 L 530,614 L 530,613 L 531,612 L 531,611 L 532,610 L 533,611 L 533,614 L 534,615 L 534,618 L 535,619 L 535,620 L 536,621 L 536,622 L 542,628 L 543,628 L 544,629 L 546,629 L 547,630 L 556,630 L 557,629 L 560,629 L 561,628 L 563,628 L 564,627 L 565,627 L 567,625 L 568,625 L 569,624 L 570,624 L 573,621 L 574,621 L 577,618 L 578,618 L 583,613 L 583,612 L 586,609 L 586,608 L 587,607 L 587,606 L 589,604 L 590,605 L 590,606 L 589,607 L 590,608 L 590,617 L 591,618 L 591,619 L 592,620 L 592,621 L 594,623 L 595,623 L 596,624 L 597,624 L 598,625 L 608,625 L 609,624 L 612,624 L 613,623 L 614,623 L 615,622 L 616,622 L 617,621 L 618,621 L 619,620 L 620,620 L 624,616 L 625,616 L 632,609 L 632,608 L 638,602 L 638,601 L 639,600 L 640,601 L 640,606 L 641,607 L 641,610 L 642,611 L 642,612 L 643,613 L 643,614 L 648,619 L 649,619 L 650,620 L 651,620 L 652,621 L 664,621 L 665,620 L 667,620 L 668,619 L 669,619 L 670,618 L 672,618 L 674,616 L 675,616 L 678,613 L 679,613 L 682,610 L 683,610 L 691,602 L 691,601 L 696,596 L 697,597 L 697,600 L 698,601 L 698,603 L 699,604 L 699,606 L 701,608 L 701,609 L 707,615 L 708,615 L 710,617 L 712,617 L 713,618 L 715,618 L 716,619 L 732,619 L 733,618 L 735,618 L 736,617 L 739,617 L 740,616 L 741,616 L 742,615 L 744,615 L 745,614 L 746,614 L 747,613 L 748,613 L 750,611 L 751,611 L 754,608 L 755,608 L 759,604 L 760,604 L 763,601 L 763,600 L 770,593 L 770,592 L 772,590 L 772,589 L 774,587 L 774,586 L 776,584 L 776,583 L 777,582 L 777,581 L 779,579 L 779,578 L 780,577 L 780,576 L 781,575 L 781,573 L 783,571 L 787,571 L 788,570 L 791,570 L 792,569 L 794,569 L 795,568 L 796,568 L 797,567 L 799,567 L 800,566 L 801,566 L 802,565 L 803,565 L 804,564 L 805,564 L 807,562 L 808,562 L 810,560 L 811,560 L 822,549 L 822,548 L 824,546 L 824,545 L 825,544 L 825,543 L 826,542 L 826,540 L 827,539 L 827,536 L 828,535 L 827,534 L 827,530 L 826,529 L 826,528 L 825,527 L 822,527 L 821,528 L 821,529 L 816,534 L 816,535 L 811,540 L 811,541 L 804,548 L 803,548 L 800,551 L 799,551 L 798,552 L 797,552 L 796,553 L 795,553 L 794,554 L 793,554 L 792,555 L 789,555 L 788,554 L 788,551 L 789,550 L 789,533 L 788,532 L 788,529 L 787,528 L 787,526 L 786,525 L 786,524 L 785,523 L 785,522 L 783,520 L 783,519 L 777,513 L 776,513 L 774,511 L 773,511 L 772,510 L 771,510 L 770,509 L 767,509 L 766,508 L 756,508 L 755,509 L 751,509 L 750,510 L 749,510 L 748,511 L 746,511 L 745,512 L 744,512 L 743,513 L 742,513 L 741,514 L 740,514 L 738,516 L 737,516 L 735,518 L 734,518 L 730,522 L 729,522 L 718,533 L 718,534 L 715,537 L 715,538 L 713,540 L 713,541 L 711,543 L 711,544 L 709,546 L 709,547 L 708,548 L 708,549 L 707,550 L 707,551 L 706,552 L 706,553 L 705,554 L 705,555 L 704,556 L 704,558 L 703,559 L 703,560 L 702,561 L 702,563 L 701,564 L 701,566 L 700,567 L 700,569 L 699,570 L 699,573 L 696,576 L 696,577 L 689,584 L 689,585 L 680,594 L 679,594 L 678,595 L 677,595 L 676,596 L 675,596 L 674,597 L 671,597 L 668,594 L 668,588 L 669,587 L 669,585 L 670,584 L 670,582 L 671,581 L 671,579 L 672,578 L 672,577 L 673,576 L 673,575 L 674,574 L 674,573 L 675,572 L 675,571 L 676,570 L 676,568 L 677,567 L 677,566 L 678,565 L 678,564 L 679,563 L 679,562 L 680,561 L 680,560 L 681,559 L 681,558 L 682,557 L 682,556 L 683,555 L 683,554 L 684,553 L 684,552 L 685,551 L 685,550 L 686,549 L 686,548 L 687,547 L 687,546 L 688,545 L 688,544 L 689,543 L 689,542 L 690,541 L 690,540 L 692,538 L 692,537 L 693,536 L 693,535 L 694,534 L 694,533 L 696,531 L 696,529 L 697,528 L 697,526 L 696,525 L 696,524 L 695,523 L 694,523 L 693,522 L 692,522 L 691,521 L 679,521 L 678,522 L 676,522 L 675,523 L 673,523 L 669,527 L 669,528 L 668,529 L 668,530 L 666,532 L 666,533 L 665,534 L 665,536 L 664,537 L 664,538 L 663,539 L 663,540 L 662,541 L 662,542 L 661,543 L 661,544 L 660,545 L 660,546 L 659,547 L 659,549 L 658,550 L 658,551 L 657,552 L 657,553 L 656,554 L 656,555 L 655,556 L 655,558 L 654,559 L 654,560 L 653,561 L 653,562 L 651,564 L 651,565 L 650,566 L 650,567 L 649,568 L 649,569 L 647,571 L 647,572 L 646,573 L 646,574 L 644,576 L 644,577 L 642,579 L 642,580 L 640,582 L 640,583 L 636,587 L 636,588 L 626,598 L 625,598 L 623,600 L 621,600 L 620,601 L 619,601 L 618,600 L 617,600 L 616,599 L 616,597 L 615,596 L 615,591 L 616,590 L 616,586 L 617,585 L 617,583 L 618,582 L 618,580 L 619,579 L 619,577 L 620,576 L 620,574 L 621,573 L 621,571 L 622,570 L 622,568 L 623,567 L 623,565 L 624,564 L 624,563 L 625,562 L 625,560 L 626,559 L 626,557 L 627,556 L 627,555 L 628,554 L 628,552 L 629,551 L 629,549 L 630,548 L 630,547 L 631,546 L 631,544 L 632,543 L 632,542 L 633,541 L 633,539 L 634,538 L 634,537 L 635,536 L 635,534 L 636,533 L 636,532 L 637,531 L 637,529 L 638,528 L 638,527 L 639,526 L 639,524 L 640,523 L 640,522 L 641,521 L 641,519 L 642,518 L 642,517 L 643,516 L 643,514 L 644,513 L 644,512 L 645,511 L 645,510 L 646,509 L 646,507 L 647,506 L 647,505 L 648,504 L 648,503 L 649,502 L 649,500 L 650,499 L 650,498 L 651,497 L 651,496 L 652,495 L 652,493 L 653,492 L 653,491 L 654,490 L 654,489 L 655,488 L 655,487 L 656,486 L 656,484 L 657,483 L 657,482 L 658,481 L 658,480 L 659,479 L 659,478 L 660,477 L 660,475 L 661,474 L 661,473 L 662,472 L 662,470 L 663,469 L 663,463 L 661,461 L 658,461 L 657,460 Z M 489,551 L 490,550 L 493,550 L 494,551 L 495,551 L 497,553 L 497,561 L 496,562 L 496,564 L 495,565 L 495,567 L 494,568 L 494,570 L 493,571 L 493,572 L 492,573 L 492,575 L 491,576 L 491,577 L 490,578 L 490,579 L 489,580 L 489,582 L 488,583 L 488,584 L 487,585 L 487,586 L 486,587 L 486,588 L 485,589 L 485,590 L 484,591 L 484,592 L 483,593 L 483,594 L 482,595 L 482,596 L 480,598 L 480,599 L 479,600 L 479,601 L 477,603 L 477,604 L 474,607 L 474,608 L 467,615 L 466,615 L 464,617 L 463,617 L 462,618 L 460,618 L 459,619 L 457,619 L 456,618 L 455,618 L 452,615 L 452,614 L 451,613 L 451,607 L 452,606 L 452,602 L 453,601 L 453,598 L 454,597 L 454,595 L 455,594 L 455,593 L 456,592 L 456,590 L 457,589 L 457,588 L 458,587 L 458,586 L 459,585 L 459,584 L 460,583 L 460,582 L 461,581 L 461,580 L 463,578 L 463,577 L 464,576 L 464,575 L 466,573 L 466,572 L 469,569 L 469,568 L 473,564 L 473,563 L 481,555 L 482,555 L 485,552 L 486,552 L 487,551 Z M 737,546 L 738,546 L 739,547 L 739,550 L 740,551 L 740,553 L 741,554 L 741,555 L 742,556 L 742,557 L 744,559 L 744,560 L 749,565 L 750,565 L 752,567 L 753,567 L 754,568 L 756,568 L 757,569 L 759,569 L 760,570 L 762,570 L 763,571 L 761,573 L 761,574 L 760,575 L 760,576 L 759,577 L 759,578 L 756,581 L 756,582 L 753,585 L 753,586 L 745,594 L 744,594 L 742,596 L 741,596 L 740,597 L 739,597 L 738,598 L 736,598 L 735,599 L 731,599 L 730,598 L 729,598 L 728,597 L 727,597 L 725,595 L 725,594 L 724,593 L 724,592 L 723,591 L 723,578 L 724,577 L 724,574 L 725,573 L 725,570 L 726,569 L 726,567 L 727,566 L 727,564 L 728,563 L 728,562 L 729,561 L 729,559 L 730,558 L 730,557 L 731,556 L 731,555 L 732,554 L 732,553 L 733,552 L 733,551 L 735,549 L 735,548 Z M 592,542 L 593,541 L 597,541 L 598,542 L 599,542 L 601,544 L 601,545 L 602,546 L 602,550 L 601,551 L 601,554 L 600,555 L 600,557 L 599,558 L 599,560 L 598,561 L 598,563 L 597,564 L 597,565 L 596,566 L 596,567 L 595,568 L 595,570 L 594,571 L 594,572 L 593,573 L 593,574 L 592,575 L 592,576 L 591,577 L 591,578 L 590,579 L 590,580 L 589,581 L 589,582 L 588,583 L 588,584 L 586,586 L 586,587 L 584,589 L 584,590 L 582,592 L 582,593 L 578,597 L 578,598 L 573,603 L 572,603 L 570,605 L 569,605 L 568,606 L 567,606 L 566,607 L 565,607 L 564,606 L 563,606 L 561,604 L 561,601 L 560,600 L 560,599 L 561,598 L 561,594 L 562,593 L 562,589 L 563,588 L 563,586 L 564,585 L 564,582 L 565,581 L 565,580 L 566,579 L 566,577 L 567,576 L 567,574 L 568,573 L 568,572 L 569,571 L 569,570 L 570,569 L 570,568 L 571,567 L 571,566 L 572,565 L 572,564 L 573,563 L 573,562 L 574,561 L 574,560 L 576,558 L 576,557 L 578,555 L 578,554 L 581,551 L 581,550 L 587,544 L 588,544 L 590,542 Z M 762,525 L 763,524 L 766,524 L 769,527 L 769,528 L 770,529 L 770,531 L 771,532 L 771,547 L 770,548 L 770,552 L 769,553 L 769,554 L 768,555 L 767,554 L 766,554 L 765,553 L 764,553 L 758,547 L 758,546 L 757,545 L 757,543 L 756,542 L 756,534 L 757,533 L 757,531 L 758,530 L 758,529 L 759,528 L 759,527 L 761,525 Z M 451,306 L 450,307 L 449,307 L 448,308 L 447,308 L 446,309 L 445,309 L 438,316 L 438,317 L 436,319 L 436,320 L 435,321 L 435,322 L 434,323 L 434,325 L 433,326 L 433,328 L 432,329 L 432,335 L 433,336 L 433,338 L 434,339 L 434,340 L 437,343 L 438,343 L 440,345 L 444,345 L 445,346 L 447,346 L 448,345 L 452,345 L 453,344 L 454,344 L 456,342 L 457,342 L 465,334 L 465,333 L 467,331 L 467,329 L 468,328 L 468,326 L 469,325 L 469,322 L 470,321 L 470,319 L 469,318 L 469,313 L 468,312 L 468,311 L 465,308 L 464,308 L 463,307 L 461,307 L 460,306 Z M 202,288 L 201,289 L 194,289 L 193,290 L 187,290 L 186,291 L 182,291 L 181,292 L 178,292 L 177,293 L 174,293 L 173,294 L 170,294 L 169,295 L 167,295 L 166,296 L 164,296 L 163,297 L 162,297 L 161,298 L 159,298 L 158,299 L 156,299 L 155,300 L 154,300 L 153,301 L 152,301 L 151,302 L 150,302 L 149,303 L 147,303 L 146,304 L 145,304 L 144,305 L 143,305 L 142,306 L 141,306 L 140,307 L 139,307 L 137,309 L 136,309 L 135,310 L 134,310 L 133,311 L 132,311 L 130,313 L 129,313 L 128,314 L 127,314 L 125,316 L 124,316 L 122,318 L 121,318 L 119,320 L 118,320 L 116,322 L 115,322 L 112,325 L 111,325 L 107,329 L 106,329 L 95,340 L 95,341 L 91,345 L 91,346 L 89,348 L 89,349 L 87,351 L 87,352 L 85,354 L 85,355 L 84,356 L 84,357 L 83,358 L 83,359 L 82,360 L 82,361 L 81,362 L 81,363 L 80,364 L 80,365 L 79,366 L 79,368 L 78,369 L 78,371 L 77,372 L 77,375 L 76,376 L 76,382 L 75,383 L 75,394 L 76,395 L 76,399 L 77,400 L 77,402 L 78,403 L 78,405 L 79,406 L 79,407 L 80,408 L 80,409 L 81,410 L 81,411 L 84,414 L 84,415 L 87,418 L 88,418 L 90,420 L 91,420 L 93,422 L 94,422 L 95,423 L 97,423 L 98,424 L 103,424 L 104,425 L 109,425 L 110,424 L 115,424 L 116,423 L 118,423 L 119,422 L 120,422 L 121,421 L 122,421 L 123,420 L 124,420 L 127,417 L 128,417 L 130,415 L 130,414 L 133,411 L 133,410 L 135,408 L 135,407 L 136,406 L 136,405 L 137,404 L 137,402 L 138,401 L 138,399 L 139,398 L 139,391 L 137,389 L 134,389 L 133,390 L 132,390 L 131,391 L 128,391 L 127,392 L 125,392 L 124,391 L 121,391 L 120,390 L 119,390 L 118,389 L 117,389 L 114,386 L 114,385 L 113,384 L 113,383 L 112,382 L 112,372 L 113,371 L 113,368 L 114,367 L 114,366 L 115,365 L 115,364 L 116,363 L 116,362 L 117,361 L 117,360 L 118,359 L 118,358 L 120,356 L 120,355 L 123,352 L 123,351 L 138,336 L 139,336 L 143,332 L 144,332 L 146,330 L 147,330 L 150,327 L 151,327 L 152,326 L 153,326 L 155,324 L 156,324 L 157,323 L 158,323 L 159,322 L 160,322 L 161,321 L 162,321 L 163,320 L 164,320 L 165,319 L 166,319 L 167,318 L 169,318 L 170,317 L 172,317 L 173,316 L 174,316 L 175,315 L 178,315 L 179,314 L 181,314 L 182,313 L 186,313 L 187,312 L 192,312 L 193,311 L 215,311 L 217,313 L 216,314 L 215,314 L 214,315 L 212,315 L 211,316 L 210,316 L 209,317 L 208,317 L 207,318 L 206,318 L 204,320 L 203,320 L 201,322 L 200,322 L 197,325 L 196,325 L 188,333 L 188,334 L 183,339 L 183,340 L 181,342 L 181,343 L 179,345 L 179,346 L 177,348 L 177,349 L 176,350 L 176,351 L 174,353 L 174,354 L 173,355 L 173,356 L 172,357 L 172,358 L 171,359 L 171,360 L 170,361 L 170,362 L 169,363 L 169,364 L 168,365 L 168,366 L 167,367 L 167,368 L 166,369 L 166,370 L 165,371 L 165,372 L 164,373 L 164,374 L 163,375 L 163,377 L 162,378 L 162,379 L 161,380 L 161,381 L 160,382 L 160,383 L 159,384 L 159,385 L 158,386 L 158,387 L 157,388 L 157,389 L 156,390 L 156,391 L 155,392 L 155,394 L 154,395 L 154,396 L 153,397 L 153,399 L 152,400 L 152,401 L 151,402 L 151,404 L 150,405 L 150,406 L 149,407 L 149,409 L 148,410 L 148,411 L 147,412 L 147,413 L 146,414 L 146,416 L 145,417 L 145,418 L 144,419 L 144,421 L 143,422 L 143,423 L 142,424 L 142,426 L 141,427 L 141,428 L 140,429 L 140,430 L 139,431 L 139,433 L 138,434 L 138,435 L 137,436 L 137,437 L 136,438 L 136,439 L 135,440 L 135,442 L 134,443 L 134,444 L 133,445 L 133,446 L 132,447 L 132,448 L 131,449 L 131,450 L 130,451 L 130,452 L 129,453 L 129,454 L 128,455 L 128,456 L 127,457 L 127,459 L 126,460 L 126,461 L 124,463 L 124,464 L 123,465 L 123,466 L 121,468 L 121,469 L 119,471 L 119,472 L 116,475 L 116,476 L 107,485 L 106,485 L 104,487 L 103,487 L 102,488 L 101,488 L 100,489 L 99,489 L 98,490 L 89,490 L 88,489 L 86,489 L 82,485 L 82,484 L 81,483 L 81,480 L 79,478 L 75,478 L 74,479 L 73,479 L 71,481 L 71,482 L 68,485 L 68,486 L 67,487 L 67,489 L 66,490 L 66,492 L 65,493 L 65,496 L 64,497 L 64,510 L 65,511 L 65,513 L 66,514 L 66,515 L 67,516 L 67,517 L 69,519 L 69,520 L 72,523 L 73,523 L 75,525 L 76,525 L 77,526 L 78,526 L 79,527 L 81,527 L 82,528 L 85,528 L 86,529 L 101,529 L 102,528 L 105,528 L 106,527 L 108,527 L 109,526 L 110,526 L 111,525 L 113,525 L 114,524 L 115,524 L 117,522 L 118,522 L 120,520 L 121,520 L 128,513 L 129,513 L 130,514 L 131,514 L 132,515 L 133,515 L 134,516 L 136,516 L 137,517 L 139,517 L 140,518 L 141,518 L 142,519 L 144,519 L 145,520 L 148,520 L 149,521 L 152,521 L 153,522 L 158,522 L 159,523 L 184,523 L 185,522 L 190,522 L 191,521 L 194,521 L 195,520 L 197,520 L 198,519 L 201,519 L 202,518 L 203,518 L 204,517 L 206,517 L 207,516 L 209,516 L 210,515 L 211,515 L 212,514 L 213,514 L 214,513 L 215,513 L 216,512 L 217,512 L 218,511 L 219,511 L 221,509 L 222,509 L 223,508 L 224,508 L 226,506 L 227,506 L 229,504 L 230,504 L 233,501 L 234,501 L 238,497 L 239,497 L 256,480 L 256,479 L 260,475 L 260,474 L 263,471 L 263,470 L 265,468 L 265,467 L 267,465 L 267,464 L 269,462 L 269,461 L 271,459 L 271,458 L 272,457 L 272,456 L 274,454 L 274,453 L 275,452 L 275,451 L 276,450 L 276,449 L 277,448 L 277,447 L 278,446 L 278,445 L 279,444 L 279,443 L 280,442 L 280,441 L 281,440 L 281,439 L 282,438 L 282,437 L 283,436 L 283,434 L 284,433 L 284,432 L 285,431 L 285,429 L 286,428 L 286,426 L 287,425 L 287,423 L 288,422 L 288,420 L 289,419 L 289,417 L 290,416 L 290,413 L 291,412 L 291,409 L 292,408 L 292,405 L 293,404 L 293,400 L 294,399 L 294,394 L 295,393 L 295,386 L 296,385 L 296,373 L 297,372 L 297,371 L 296,370 L 296,369 L 297,368 L 297,366 L 296,365 L 296,354 L 295,353 L 295,348 L 294,347 L 294,344 L 293,343 L 293,341 L 292,340 L 292,338 L 291,337 L 291,335 L 290,334 L 290,333 L 289,332 L 289,331 L 288,330 L 288,329 L 287,328 L 287,327 L 286,326 L 286,325 L 284,323 L 284,322 L 282,320 L 282,319 L 279,316 L 279,315 L 272,308 L 271,308 L 267,304 L 266,304 L 264,302 L 263,302 L 261,300 L 260,300 L 259,299 L 258,299 L 257,298 L 256,298 L 255,297 L 254,297 L 253,296 L 252,296 L 251,295 L 250,295 L 249,294 L 247,294 L 246,293 L 245,293 L 244,292 L 241,292 L 240,291 L 237,291 L 236,290 L 232,290 L 231,289 L 225,289 L 224,288 Z M 230,316 L 231,315 L 232,316 L 233,316 L 234,317 L 235,317 L 236,318 L 237,318 L 238,319 L 239,319 L 241,321 L 242,321 L 252,331 L 252,332 L 254,334 L 254,335 L 256,337 L 256,338 L 257,339 L 257,341 L 258,342 L 258,343 L 259,344 L 259,346 L 260,347 L 260,350 L 261,351 L 261,354 L 262,355 L 262,363 L 263,364 L 263,373 L 262,374 L 262,385 L 261,386 L 261,392 L 260,393 L 260,397 L 259,398 L 259,401 L 258,402 L 258,405 L 257,406 L 257,409 L 256,410 L 256,412 L 255,413 L 255,415 L 254,416 L 254,418 L 253,419 L 253,421 L 252,422 L 252,423 L 251,424 L 251,425 L 250,426 L 250,428 L 249,429 L 249,430 L 248,431 L 248,432 L 247,433 L 247,434 L 246,435 L 246,436 L 245,437 L 245,438 L 244,439 L 244,440 L 243,441 L 243,442 L 242,443 L 242,444 L 240,446 L 240,447 L 238,449 L 238,450 L 236,452 L 236,453 L 233,456 L 233,457 L 229,461 L 229,462 L 214,477 L 213,477 L 209,481 L 208,481 L 205,484 L 204,484 L 202,486 L 201,486 L 199,488 L 198,488 L 197,489 L 196,489 L 195,490 L 194,490 L 193,491 L 192,491 L 191,492 L 190,492 L 189,493 L 187,493 L 186,494 L 184,494 L 183,495 L 182,495 L 181,496 L 178,496 L 177,497 L 173,497 L 172,498 L 165,498 L 164,499 L 163,498 L 162,499 L 157,499 L 156,498 L 150,498 L 149,497 L 146,497 L 145,496 L 144,496 L 143,495 L 143,494 L 145,492 L 145,491 L 146,490 L 146,489 L 148,487 L 148,486 L 150,484 L 150,483 L 151,482 L 151,481 L 153,479 L 153,478 L 155,476 L 155,475 L 156,474 L 156,473 L 157,472 L 157,471 L 158,470 L 158,469 L 159,468 L 159,467 L 160,466 L 160,465 L 161,464 L 161,463 L 162,462 L 162,461 L 163,460 L 163,459 L 164,458 L 164,456 L 165,455 L 165,454 L 166,453 L 166,452 L 167,451 L 167,449 L 168,448 L 168,447 L 169,446 L 169,444 L 170,443 L 170,442 L 171,441 L 171,439 L 172,438 L 172,436 L 173,435 L 173,434 L 174,433 L 174,431 L 175,430 L 175,428 L 176,427 L 176,426 L 177,425 L 177,423 L 178,422 L 178,421 L 179,420 L 179,418 L 180,417 L 180,415 L 181,414 L 181,412 L 182,411 L 182,409 L 183,408 L 183,407 L 184,406 L 184,404 L 185,403 L 185,401 L 186,400 L 186,398 L 187,397 L 187,395 L 188,394 L 188,393 L 189,392 L 189,390 L 190,389 L 190,387 L 191,386 L 191,385 L 192,384 L 192,382 L 193,381 L 193,380 L 194,379 L 194,377 L 195,376 L 195,374 L 196,373 L 196,372 L 197,371 L 197,369 L 198,368 L 198,367 L 199,366 L 199,365 L 200,364 L 200,362 L 201,361 L 201,360 L 202,359 L 202,358 L 203,357 L 203,355 L 204,354 L 204,353 L 205,352 L 205,351 L 206,350 L 206,349 L 207,348 L 207,347 L 209,345 L 209,344 L 210,343 L 210,342 L 212,340 L 212,339 L 214,337 L 214,336 L 216,334 L 216,333 L 219,330 L 219,329 L 230,318 Z M 914,246 L 913,247 L 910,247 L 909,248 L 908,248 L 907,249 L 906,249 L 905,250 L 904,250 L 903,251 L 902,251 L 899,254 L 898,254 L 890,262 L 890,263 L 887,266 L 887,267 L 885,269 L 885,270 L 883,272 L 883,273 L 881,275 L 881,276 L 879,278 L 879,279 L 877,281 L 877,282 L 876,283 L 876,284 L 874,286 L 874,287 L 873,288 L 873,289 L 872,290 L 872,291 L 870,293 L 870,294 L 869,295 L 869,296 L 868,297 L 868,298 L 867,299 L 867,300 L 866,301 L 866,302 L 865,303 L 865,304 L 863,306 L 863,307 L 862,308 L 862,309 L 861,310 L 861,311 L 860,312 L 860,313 L 859,314 L 859,315 L 858,316 L 858,317 L 857,318 L 857,319 L 856,320 L 856,321 L 855,322 L 855,323 L 854,324 L 854,325 L 853,326 L 853,327 L 852,328 L 852,329 L 851,330 L 851,332 L 850,333 L 850,334 L 849,335 L 849,336 L 848,337 L 848,338 L 847,339 L 847,340 L 846,341 L 846,343 L 845,344 L 845,345 L 844,346 L 844,347 L 843,348 L 843,350 L 842,351 L 842,352 L 841,353 L 841,355 L 840,356 L 840,358 L 839,359 L 839,361 L 838,362 L 838,364 L 837,365 L 837,367 L 836,368 L 836,369 L 835,370 L 835,372 L 834,373 L 834,374 L 831,377 L 831,378 L 828,381 L 828,382 L 824,386 L 824,387 L 819,392 L 819,393 L 810,402 L 809,402 L 805,406 L 804,406 L 802,408 L 801,408 L 800,409 L 799,409 L 797,411 L 796,411 L 794,413 L 793,413 L 792,414 L 791,414 L 790,415 L 788,415 L 787,416 L 784,416 L 783,417 L 777,417 L 776,416 L 774,416 L 772,414 L 771,414 L 770,413 L 770,412 L 769,411 L 769,409 L 768,408 L 768,395 L 769,394 L 769,390 L 770,389 L 770,387 L 771,386 L 771,383 L 772,382 L 772,380 L 773,379 L 773,378 L 774,377 L 774,375 L 775,374 L 775,373 L 776,372 L 776,371 L 777,370 L 777,369 L 779,367 L 779,366 L 780,365 L 780,364 L 783,361 L 783,360 L 794,349 L 795,349 L 797,347 L 798,347 L 800,345 L 801,345 L 802,344 L 803,344 L 804,343 L 808,343 L 809,344 L 809,345 L 810,346 L 810,347 L 809,348 L 809,350 L 808,351 L 808,352 L 807,353 L 807,354 L 806,355 L 806,356 L 803,359 L 803,360 L 798,365 L 798,366 L 797,367 L 797,373 L 799,375 L 800,375 L 801,376 L 802,376 L 803,377 L 806,377 L 807,378 L 808,378 L 809,377 L 812,377 L 813,376 L 814,376 L 816,374 L 817,374 L 819,372 L 819,371 L 821,369 L 821,368 L 823,366 L 823,365 L 824,364 L 824,363 L 825,362 L 825,360 L 826,359 L 826,358 L 827,357 L 827,354 L 828,353 L 828,349 L 829,348 L 829,341 L 828,340 L 828,337 L 827,336 L 827,335 L 826,334 L 826,333 L 824,331 L 824,330 L 823,329 L 822,329 L 820,327 L 819,327 L 818,326 L 817,326 L 816,325 L 814,325 L 813,324 L 801,324 L 800,325 L 797,325 L 796,326 L 794,326 L 793,327 L 792,327 L 791,328 L 789,328 L 787,330 L 786,330 L 785,331 L 784,331 L 783,332 L 782,332 L 780,334 L 779,334 L 776,337 L 775,337 L 771,341 L 770,341 L 763,348 L 763,349 L 758,354 L 758,355 L 755,358 L 755,359 L 753,361 L 753,362 L 751,364 L 751,365 L 749,367 L 749,368 L 748,369 L 748,370 L 747,371 L 747,372 L 746,373 L 746,374 L 745,375 L 745,376 L 744,377 L 744,378 L 743,379 L 743,381 L 742,382 L 742,383 L 741,384 L 741,386 L 740,387 L 740,388 L 739,389 L 739,391 L 735,395 L 735,396 L 730,401 L 730,402 L 719,413 L 718,413 L 715,416 L 711,416 L 709,414 L 709,413 L 708,412 L 708,411 L 709,410 L 709,406 L 710,405 L 710,403 L 711,402 L 711,400 L 712,399 L 712,397 L 713,396 L 713,395 L 714,394 L 714,392 L 715,391 L 715,390 L 716,389 L 716,388 L 717,387 L 717,385 L 718,384 L 718,383 L 719,382 L 719,381 L 720,380 L 720,379 L 721,378 L 721,377 L 722,376 L 722,375 L 723,374 L 723,373 L 724,372 L 724,371 L 725,370 L 725,369 L 726,368 L 726,367 L 727,366 L 727,365 L 728,364 L 728,363 L 729,362 L 729,361 L 731,359 L 731,358 L 732,357 L 732,356 L 733,355 L 733,354 L 734,353 L 734,352 L 736,350 L 736,349 L 737,348 L 737,347 L 738,346 L 738,341 L 737,340 L 737,339 L 734,336 L 733,336 L 732,335 L 731,335 L 730,334 L 728,334 L 727,333 L 722,333 L 721,334 L 719,334 L 718,335 L 717,335 L 713,339 L 713,340 L 711,342 L 711,344 L 710,345 L 710,346 L 709,347 L 708,346 L 708,342 L 707,341 L 707,340 L 706,339 L 706,338 L 704,336 L 703,336 L 701,334 L 700,334 L 699,333 L 698,333 L 697,332 L 696,332 L 695,331 L 683,331 L 682,332 L 680,332 L 679,333 L 677,333 L 676,334 L 675,334 L 674,335 L 673,335 L 671,337 L 670,337 L 669,338 L 668,338 L 666,340 L 665,340 L 662,343 L 661,343 L 645,359 L 645,360 L 641,364 L 641,365 L 638,368 L 638,369 L 636,371 L 636,372 L 634,374 L 634,375 L 632,377 L 632,378 L 631,379 L 631,380 L 630,381 L 630,382 L 629,383 L 629,384 L 628,385 L 628,386 L 620,394 L 619,394 L 615,398 L 614,398 L 612,400 L 611,400 L 609,402 L 608,402 L 607,401 L 609,399 L 609,398 L 610,397 L 610,395 L 611,394 L 611,393 L 612,392 L 612,391 L 613,390 L 613,388 L 614,387 L 614,385 L 615,384 L 615,382 L 616,381 L 616,379 L 617,378 L 617,376 L 618,375 L 618,371 L 619,370 L 619,353 L 618,352 L 618,350 L 617,349 L 617,348 L 611,342 L 610,342 L 609,341 L 608,341 L 607,340 L 598,340 L 597,341 L 596,341 L 595,340 L 597,338 L 597,337 L 603,331 L 603,330 L 607,326 L 607,325 L 609,323 L 609,322 L 612,319 L 612,318 L 614,316 L 614,315 L 616,313 L 616,312 L 617,311 L 617,310 L 619,308 L 619,307 L 620,306 L 620,305 L 621,304 L 621,303 L 622,302 L 622,301 L 623,300 L 623,298 L 624,297 L 624,296 L 625,295 L 625,293 L 626,292 L 626,291 L 627,290 L 627,287 L 628,286 L 628,283 L 629,282 L 629,270 L 628,269 L 628,267 L 627,266 L 627,265 L 626,264 L 626,263 L 622,259 L 621,259 L 620,258 L 619,258 L 618,257 L 615,257 L 614,256 L 612,256 L 611,257 L 606,257 L 605,258 L 603,258 L 602,259 L 601,259 L 600,260 L 599,260 L 598,261 L 597,261 L 596,262 L 595,262 L 593,264 L 592,264 L 586,270 L 585,270 L 583,272 L 583,273 L 577,279 L 577,280 L 574,283 L 574,284 L 572,286 L 572,287 L 570,289 L 570,290 L 568,292 L 568,293 L 567,294 L 567,295 L 566,296 L 566,297 L 564,299 L 564,300 L 563,301 L 563,302 L 562,303 L 562,304 L 561,305 L 561,306 L 560,307 L 560,308 L 559,309 L 559,310 L 558,311 L 558,312 L 557,313 L 557,314 L 556,315 L 556,316 L 555,317 L 555,318 L 554,319 L 554,320 L 553,321 L 553,323 L 552,324 L 552,325 L 551,326 L 551,327 L 550,328 L 550,329 L 549,330 L 549,332 L 548,333 L 548,334 L 547,335 L 547,336 L 546,337 L 546,339 L 545,340 L 545,341 L 544,342 L 544,344 L 543,345 L 543,346 L 542,347 L 542,349 L 541,350 L 541,351 L 540,352 L 540,354 L 539,355 L 539,357 L 538,358 L 538,360 L 537,361 L 537,362 L 536,363 L 536,365 L 535,366 L 535,368 L 534,369 L 534,371 L 533,372 L 533,374 L 532,375 L 532,377 L 531,378 L 531,380 L 530,381 L 530,383 L 529,384 L 529,386 L 528,387 L 528,390 L 527,391 L 527,393 L 526,394 L 526,397 L 524,399 L 524,400 L 523,401 L 523,402 L 520,405 L 520,406 L 518,408 L 518,409 L 514,413 L 514,414 L 509,419 L 509,420 L 503,426 L 502,426 L 498,430 L 497,430 L 496,431 L 495,431 L 494,432 L 493,432 L 492,433 L 487,433 L 484,430 L 484,428 L 483,427 L 483,415 L 489,409 L 489,408 L 496,401 L 496,400 L 500,396 L 500,395 L 504,391 L 504,390 L 507,387 L 507,386 L 509,384 L 509,383 L 511,381 L 511,380 L 513,378 L 513,377 L 514,376 L 514,375 L 516,373 L 516,372 L 518,370 L 518,369 L 519,368 L 519,367 L 521,365 L 521,364 L 522,363 L 522,362 L 523,361 L 523,360 L 524,359 L 524,358 L 525,357 L 525,356 L 527,354 L 527,353 L 528,352 L 528,351 L 529,350 L 529,349 L 530,348 L 530,347 L 531,346 L 531,345 L 532,344 L 532,343 L 533,342 L 533,341 L 534,340 L 534,339 L 535,338 L 535,337 L 536,336 L 536,335 L 537,334 L 537,332 L 538,331 L 538,330 L 539,329 L 539,327 L 540,326 L 540,324 L 541,323 L 541,320 L 542,319 L 542,317 L 543,316 L 543,313 L 544,312 L 544,309 L 545,308 L 545,303 L 546,302 L 546,285 L 545,284 L 545,283 L 544,282 L 544,281 L 542,279 L 542,278 L 541,278 L 538,275 L 536,275 L 535,274 L 529,274 L 528,275 L 526,275 L 525,276 L 524,276 L 523,277 L 522,277 L 520,279 L 519,279 L 515,283 L 514,283 L 511,286 L 511,287 L 505,293 L 505,294 L 502,297 L 502,298 L 500,300 L 500,301 L 498,303 L 498,304 L 497,305 L 497,306 L 496,307 L 496,308 L 495,309 L 495,310 L 493,312 L 493,313 L 492,314 L 492,315 L 491,316 L 491,317 L 490,318 L 490,319 L 489,320 L 489,321 L 488,322 L 488,323 L 487,324 L 487,325 L 486,326 L 486,328 L 485,329 L 485,330 L 484,331 L 484,332 L 483,333 L 483,334 L 482,335 L 482,337 L 481,338 L 481,339 L 480,340 L 480,341 L 479,342 L 479,344 L 478,345 L 478,346 L 477,347 L 477,349 L 476,350 L 476,352 L 475,353 L 475,354 L 474,355 L 474,357 L 473,358 L 473,360 L 472,361 L 472,363 L 471,364 L 471,366 L 470,367 L 470,369 L 469,370 L 469,372 L 468,373 L 468,375 L 467,376 L 467,378 L 466,379 L 466,381 L 465,382 L 465,385 L 464,386 L 464,388 L 463,389 L 463,392 L 462,393 L 462,396 L 461,397 L 461,400 L 460,401 L 460,404 L 459,405 L 459,408 L 458,409 L 458,414 L 457,415 L 457,416 L 455,418 L 455,419 L 452,422 L 452,423 L 449,426 L 449,427 L 445,431 L 445,432 L 441,436 L 440,436 L 439,437 L 438,437 L 437,438 L 433,438 L 432,437 L 431,437 L 430,436 L 430,427 L 431,426 L 431,423 L 432,422 L 432,420 L 433,419 L 433,417 L 434,416 L 434,415 L 435,414 L 435,412 L 436,411 L 436,409 L 437,408 L 437,407 L 438,406 L 438,404 L 439,403 L 439,401 L 440,400 L 440,398 L 441,397 L 441,396 L 442,395 L 442,393 L 443,392 L 443,391 L 444,390 L 444,389 L 445,388 L 445,386 L 446,385 L 446,384 L 447,383 L 447,381 L 448,380 L 448,379 L 449,378 L 449,377 L 450,376 L 450,374 L 451,373 L 451,367 L 450,366 L 450,365 L 447,362 L 445,362 L 444,361 L 440,361 L 439,360 L 432,360 L 431,361 L 429,361 L 427,363 L 427,364 L 426,365 L 426,366 L 425,367 L 425,368 L 424,369 L 424,370 L 423,371 L 423,373 L 422,374 L 422,375 L 421,376 L 421,378 L 420,379 L 420,380 L 419,381 L 419,383 L 418,384 L 418,386 L 417,387 L 417,389 L 416,390 L 416,392 L 415,393 L 415,395 L 414,396 L 414,398 L 413,399 L 413,401 L 412,402 L 412,404 L 411,405 L 411,407 L 410,408 L 410,410 L 409,411 L 409,414 L 408,415 L 408,417 L 407,418 L 407,419 L 405,421 L 405,422 L 404,423 L 404,424 L 402,426 L 402,427 L 399,430 L 399,431 L 396,434 L 396,435 L 392,439 L 392,440 L 389,443 L 388,443 L 386,445 L 385,445 L 384,446 L 382,446 L 379,443 L 379,436 L 380,435 L 380,432 L 381,431 L 381,429 L 382,428 L 382,426 L 383,425 L 383,423 L 384,422 L 384,420 L 385,419 L 385,418 L 386,417 L 386,415 L 387,414 L 387,413 L 388,412 L 388,410 L 389,409 L 389,408 L 390,407 L 390,406 L 391,405 L 391,404 L 392,403 L 392,401 L 393,400 L 393,399 L 394,398 L 394,397 L 395,396 L 395,395 L 396,394 L 396,393 L 397,392 L 397,391 L 398,390 L 398,389 L 399,388 L 399,387 L 400,386 L 400,385 L 401,384 L 401,383 L 402,382 L 402,381 L 403,380 L 403,379 L 404,378 L 404,372 L 403,371 L 403,370 L 400,367 L 399,367 L 397,365 L 396,365 L 395,364 L 393,364 L 392,363 L 389,363 L 388,364 L 385,364 L 384,365 L 383,365 L 379,369 L 379,370 L 378,371 L 378,373 L 376,375 L 375,374 L 375,370 L 370,365 L 369,365 L 368,364 L 366,364 L 365,363 L 355,363 L 354,364 L 351,364 L 350,365 L 349,365 L 348,366 L 347,366 L 346,367 L 345,367 L 344,368 L 343,368 L 342,369 L 341,369 L 340,370 L 339,370 L 337,372 L 336,372 L 333,375 L 332,375 L 317,390 L 317,391 L 314,394 L 314,395 L 311,398 L 311,399 L 309,401 L 309,402 L 307,404 L 307,405 L 306,406 L 306,407 L 304,409 L 304,410 L 303,411 L 303,412 L 302,413 L 302,414 L 301,415 L 301,416 L 300,417 L 300,418 L 299,419 L 299,420 L 298,421 L 298,423 L 297,424 L 297,426 L 296,427 L 296,428 L 295,429 L 295,431 L 294,432 L 294,435 L 293,436 L 293,438 L 292,439 L 292,443 L 291,444 L 291,449 L 290,450 L 290,458 L 291,459 L 291,465 L 292,466 L 292,469 L 293,470 L 293,471 L 294,472 L 294,473 L 300,479 L 301,479 L 302,480 L 304,480 L 305,481 L 317,481 L 318,480 L 320,480 L 321,479 L 323,479 L 324,478 L 325,478 L 326,477 L 327,477 L 328,476 L 329,476 L 331,474 L 332,474 L 345,461 L 345,460 L 348,457 L 348,456 L 350,454 L 350,453 L 351,452 L 352,453 L 352,459 L 353,460 L 353,463 L 354,464 L 354,466 L 359,471 L 361,471 L 362,472 L 366,472 L 367,473 L 368,472 L 374,472 L 375,471 L 376,471 L 377,470 L 378,470 L 379,469 L 380,469 L 381,468 L 382,468 L 384,466 L 385,466 L 396,455 L 396,454 L 399,451 L 399,450 L 402,447 L 403,448 L 403,453 L 404,454 L 404,456 L 405,457 L 405,458 L 410,463 L 411,463 L 412,464 L 414,464 L 415,465 L 427,465 L 428,464 L 429,464 L 430,463 L 431,463 L 432,462 L 433,462 L 437,458 L 438,458 L 440,456 L 440,455 L 448,447 L 448,446 L 450,444 L 450,443 L 452,441 L 452,440 L 454,438 L 454,437 L 455,436 L 456,437 L 456,442 L 457,443 L 457,446 L 458,447 L 458,448 L 459,449 L 459,451 L 461,453 L 461,454 L 464,457 L 465,457 L 466,458 L 467,458 L 468,459 L 471,459 L 472,460 L 480,460 L 481,459 L 484,459 L 485,458 L 487,458 L 488,457 L 489,457 L 490,456 L 491,456 L 492,455 L 493,455 L 495,453 L 496,453 L 499,450 L 500,450 L 509,441 L 509,440 L 513,436 L 513,435 L 515,433 L 515,432 L 517,430 L 517,429 L 520,426 L 520,425 L 521,424 L 522,425 L 522,433 L 523,434 L 523,436 L 524,437 L 524,439 L 525,440 L 525,441 L 526,442 L 526,443 L 528,445 L 528,446 L 531,449 L 532,449 L 534,451 L 535,451 L 536,452 L 538,452 L 539,453 L 542,453 L 543,454 L 553,454 L 554,453 L 557,453 L 558,452 L 560,452 L 561,451 L 563,451 L 564,450 L 565,450 L 566,449 L 567,449 L 568,448 L 569,448 L 571,446 L 572,446 L 573,445 L 574,445 L 576,443 L 577,443 L 582,438 L 583,438 L 588,433 L 588,432 L 593,427 L 593,426 L 595,424 L 595,423 L 597,421 L 597,420 L 598,419 L 599,419 L 600,418 L 602,418 L 603,417 L 605,417 L 606,416 L 607,416 L 608,415 L 610,415 L 612,413 L 613,413 L 615,411 L 616,411 L 617,410 L 618,411 L 618,416 L 617,417 L 617,422 L 618,423 L 618,428 L 619,429 L 619,431 L 620,432 L 620,433 L 621,434 L 621,435 L 628,442 L 629,442 L 630,443 L 631,443 L 632,444 L 634,444 L 635,445 L 647,445 L 648,444 L 651,444 L 652,443 L 653,443 L 654,442 L 655,442 L 656,441 L 657,441 L 658,440 L 659,440 L 661,438 L 662,438 L 665,435 L 666,435 L 670,431 L 670,430 L 675,425 L 675,424 L 677,422 L 677,421 L 678,420 L 679,421 L 679,430 L 680,431 L 680,434 L 682,436 L 682,437 L 683,437 L 685,439 L 686,439 L 687,440 L 689,440 L 690,441 L 699,441 L 700,440 L 702,440 L 703,439 L 705,439 L 706,438 L 707,438 L 708,437 L 709,437 L 710,436 L 711,436 L 713,434 L 714,434 L 717,431 L 718,431 L 724,425 L 725,425 L 731,419 L 731,418 L 735,414 L 735,413 L 736,412 L 737,412 L 738,413 L 738,417 L 739,418 L 739,420 L 740,421 L 740,422 L 741,423 L 741,424 L 742,425 L 742,426 L 746,430 L 746,431 L 747,432 L 748,432 L 751,435 L 752,435 L 753,436 L 754,436 L 755,437 L 756,437 L 757,438 L 760,438 L 761,439 L 777,439 L 778,438 L 780,438 L 781,437 L 783,437 L 784,436 L 785,436 L 786,435 L 787,435 L 788,434 L 789,434 L 790,433 L 791,433 L 792,432 L 793,432 L 795,430 L 796,430 L 799,427 L 800,427 L 803,424 L 804,424 L 815,413 L 816,414 L 816,415 L 815,416 L 815,421 L 814,422 L 814,425 L 815,426 L 815,428 L 816,429 L 816,430 L 819,433 L 820,433 L 821,434 L 822,434 L 823,435 L 824,435 L 825,436 L 827,436 L 828,437 L 836,437 L 839,434 L 839,433 L 840,432 L 840,430 L 841,429 L 841,428 L 842,427 L 842,425 L 843,424 L 843,423 L 844,422 L 844,421 L 845,420 L 845,418 L 846,417 L 846,416 L 847,415 L 847,414 L 848,413 L 848,411 L 849,410 L 849,409 L 850,408 L 850,407 L 851,406 L 851,405 L 852,404 L 852,403 L 853,402 L 853,400 L 854,399 L 854,398 L 855,397 L 855,396 L 856,395 L 856,393 L 857,392 L 858,392 L 859,393 L 859,394 L 860,395 L 860,396 L 861,397 L 861,400 L 862,401 L 862,404 L 863,405 L 863,408 L 864,409 L 864,410 L 865,411 L 865,413 L 866,414 L 866,415 L 867,416 L 867,417 L 868,418 L 868,419 L 869,420 L 869,421 L 870,422 L 870,423 L 872,425 L 872,426 L 880,434 L 881,434 L 883,436 L 884,436 L 885,437 L 886,437 L 887,438 L 888,438 L 889,439 L 891,439 L 892,440 L 897,440 L 898,441 L 900,441 L 901,440 L 906,440 L 907,439 L 909,439 L 910,438 L 912,438 L 913,437 L 914,437 L 915,436 L 916,436 L 917,435 L 918,435 L 920,433 L 921,433 L 924,430 L 925,430 L 936,419 L 936,418 L 939,415 L 939,414 L 941,412 L 941,411 L 942,410 L 942,409 L 944,407 L 944,406 L 945,405 L 945,404 L 946,403 L 946,401 L 947,400 L 947,399 L 948,398 L 948,395 L 949,394 L 949,390 L 950,389 L 950,387 L 949,386 L 949,383 L 948,382 L 948,381 L 946,379 L 944,379 L 941,382 L 941,383 L 940,384 L 940,385 L 939,386 L 939,387 L 938,388 L 938,389 L 937,390 L 937,391 L 935,393 L 935,394 L 932,397 L 932,398 L 924,406 L 923,406 L 919,410 L 918,410 L 917,411 L 916,411 L 915,412 L 914,412 L 913,413 L 911,413 L 910,414 L 903,414 L 902,413 L 900,413 L 899,412 L 898,412 L 891,405 L 891,404 L 889,402 L 889,401 L 888,400 L 888,399 L 887,398 L 887,397 L 886,396 L 886,395 L 885,394 L 885,393 L 884,392 L 884,390 L 885,389 L 887,389 L 888,388 L 891,388 L 892,387 L 894,387 L 895,386 L 897,386 L 898,385 L 900,385 L 901,384 L 902,384 L 903,383 L 905,383 L 907,381 L 908,381 L 909,380 L 910,380 L 912,378 L 913,378 L 918,373 L 919,373 L 920,372 L 920,371 L 926,365 L 926,364 L 928,362 L 928,361 L 929,360 L 929,359 L 931,357 L 931,355 L 932,354 L 932,353 L 933,352 L 933,348 L 934,347 L 934,340 L 933,339 L 933,335 L 932,334 L 932,333 L 931,332 L 931,331 L 926,326 L 925,326 L 924,325 L 923,325 L 922,324 L 918,324 L 917,323 L 912,323 L 911,324 L 906,324 L 905,325 L 902,325 L 901,326 L 900,326 L 899,327 L 898,327 L 897,328 L 896,328 L 894,330 L 893,330 L 891,332 L 890,332 L 886,336 L 885,336 L 880,341 L 879,340 L 879,339 L 881,337 L 881,336 L 882,335 L 882,334 L 883,333 L 883,332 L 884,331 L 884,330 L 885,329 L 885,328 L 886,327 L 886,326 L 887,325 L 887,324 L 888,323 L 888,322 L 890,320 L 890,319 L 891,318 L 891,317 L 892,316 L 892,315 L 893,314 L 893,313 L 895,311 L 895,310 L 896,309 L 896,308 L 897,307 L 897,306 L 899,304 L 899,303 L 900,302 L 900,301 L 901,300 L 901,299 L 903,297 L 903,296 L 905,294 L 905,293 L 906,292 L 906,291 L 908,289 L 908,288 L 909,287 L 909,286 L 911,284 L 911,283 L 913,281 L 913,280 L 915,278 L 915,277 L 917,275 L 917,274 L 919,272 L 919,271 L 920,270 L 920,269 L 922,267 L 922,266 L 924,264 L 924,263 L 926,261 L 926,260 L 927,259 L 927,258 L 928,257 L 928,251 L 925,248 L 924,248 L 923,247 L 921,247 L 920,246 Z M 617,410 L 618,409 L 619,410 L 618,411 Z M 488,389 L 489,388 L 490,389 L 489,390 Z M 359,382 L 360,381 L 363,381 L 364,382 L 365,382 L 367,384 L 367,385 L 368,386 L 368,391 L 367,392 L 367,396 L 366,397 L 366,399 L 365,400 L 365,402 L 364,403 L 364,404 L 363,405 L 363,407 L 362,408 L 362,409 L 361,410 L 361,412 L 360,413 L 360,414 L 359,415 L 359,416 L 358,417 L 358,418 L 357,419 L 357,420 L 356,421 L 356,422 L 355,423 L 355,424 L 354,425 L 354,426 L 353,427 L 353,428 L 352,429 L 352,430 L 351,431 L 351,432 L 349,434 L 349,435 L 347,437 L 347,438 L 344,441 L 344,442 L 335,451 L 334,451 L 332,453 L 331,453 L 330,454 L 324,454 L 321,451 L 321,449 L 320,448 L 320,441 L 321,440 L 321,436 L 322,435 L 322,433 L 323,432 L 323,429 L 324,428 L 324,427 L 325,426 L 325,424 L 326,423 L 326,422 L 327,421 L 327,420 L 328,419 L 328,417 L 329,416 L 329,415 L 330,414 L 330,413 L 331,412 L 331,411 L 333,409 L 333,408 L 335,406 L 335,405 L 337,403 L 337,402 L 339,400 L 339,399 L 343,395 L 343,394 L 353,384 L 354,384 L 356,382 Z M 579,361 L 580,360 L 582,360 L 583,361 L 585,361 L 587,363 L 587,364 L 588,365 L 588,366 L 589,367 L 589,370 L 590,371 L 590,374 L 589,375 L 589,382 L 588,383 L 588,386 L 587,387 L 587,390 L 586,391 L 586,392 L 585,393 L 585,395 L 584,396 L 584,398 L 583,399 L 583,400 L 582,401 L 582,402 L 581,403 L 581,404 L 580,405 L 580,406 L 579,407 L 579,408 L 577,410 L 577,411 L 576,412 L 576,413 L 574,415 L 574,416 L 570,420 L 570,421 L 566,425 L 565,425 L 562,428 L 561,428 L 560,429 L 554,429 L 550,425 L 550,424 L 549,423 L 549,418 L 548,417 L 548,415 L 549,414 L 549,408 L 550,407 L 550,403 L 551,402 L 551,400 L 552,399 L 552,396 L 553,395 L 553,394 L 554,393 L 554,391 L 555,390 L 555,389 L 556,388 L 556,387 L 557,386 L 557,385 L 558,384 L 558,383 L 559,382 L 559,381 L 561,379 L 561,378 L 563,376 L 563,375 L 566,372 L 566,371 L 573,364 L 574,364 L 576,362 L 577,362 L 578,361 Z M 688,350 L 689,349 L 694,349 L 695,350 L 696,350 L 698,352 L 698,362 L 697,363 L 697,366 L 696,367 L 696,369 L 695,370 L 695,371 L 694,372 L 694,374 L 693,375 L 693,376 L 692,377 L 692,379 L 691,380 L 691,381 L 690,382 L 690,383 L 689,384 L 689,385 L 688,386 L 688,387 L 687,388 L 687,389 L 686,390 L 686,391 L 685,392 L 685,393 L 684,394 L 684,395 L 681,398 L 681,399 L 678,402 L 678,403 L 663,418 L 662,418 L 660,420 L 659,420 L 658,421 L 657,421 L 656,422 L 651,422 L 648,419 L 648,418 L 647,417 L 647,411 L 648,410 L 648,406 L 649,405 L 649,403 L 650,402 L 650,400 L 651,399 L 651,397 L 652,396 L 652,395 L 653,394 L 653,393 L 654,392 L 654,391 L 655,390 L 655,389 L 656,388 L 656,387 L 657,386 L 657,385 L 658,384 L 658,383 L 659,382 L 659,381 L 660,380 L 660,379 L 662,377 L 662,376 L 663,375 L 663,374 L 665,372 L 665,371 L 667,369 L 667,368 L 671,364 L 671,363 L 680,354 L 681,354 L 683,352 L 684,352 L 686,350 Z M 897,344 L 898,343 L 904,343 L 907,346 L 907,350 L 906,351 L 906,353 L 905,354 L 905,355 L 904,356 L 904,357 L 902,359 L 902,360 L 896,366 L 895,366 L 892,369 L 891,369 L 889,371 L 888,371 L 887,372 L 886,372 L 885,373 L 884,373 L 883,374 L 882,374 L 881,375 L 879,375 L 878,376 L 876,376 L 875,377 L 871,377 L 870,378 L 865,378 L 864,377 L 866,375 L 866,374 L 868,372 L 868,371 L 870,369 L 870,368 L 876,362 L 876,361 L 889,348 L 890,348 L 893,345 L 894,345 L 895,344 Z M 594,341 L 595,340 L 596,341 L 595,342 Z M 531,297 L 532,297 L 534,299 L 534,303 L 533,304 L 533,308 L 532,309 L 532,312 L 531,313 L 531,315 L 530,316 L 530,319 L 529,320 L 529,321 L 528,322 L 528,324 L 527,325 L 527,326 L 526,327 L 526,329 L 525,330 L 525,331 L 524,332 L 524,333 L 523,334 L 523,335 L 522,336 L 522,337 L 521,338 L 521,339 L 520,340 L 520,341 L 519,342 L 519,343 L 518,344 L 518,345 L 517,346 L 517,347 L 516,348 L 516,349 L 515,350 L 515,351 L 513,353 L 513,354 L 512,355 L 512,356 L 511,357 L 511,358 L 509,360 L 509,361 L 508,362 L 508,363 L 506,365 L 506,366 L 505,367 L 505,368 L 503,370 L 503,371 L 501,373 L 501,374 L 499,376 L 499,377 L 497,379 L 497,380 L 494,383 L 494,384 L 491,387 L 491,388 L 490,389 L 489,388 L 489,386 L 490,385 L 490,383 L 491,382 L 491,381 L 492,380 L 492,378 L 493,377 L 493,375 L 494,374 L 494,372 L 495,371 L 495,370 L 496,369 L 496,367 L 497,366 L 497,365 L 498,364 L 498,362 L 499,361 L 499,360 L 500,359 L 500,357 L 501,356 L 501,355 L 502,354 L 502,352 L 503,351 L 503,350 L 504,349 L 504,348 L 505,347 L 505,345 L 506,344 L 506,343 L 507,342 L 507,341 L 508,340 L 508,338 L 509,337 L 509,336 L 510,335 L 510,334 L 511,333 L 511,331 L 512,330 L 512,329 L 513,328 L 513,327 L 514,326 L 514,325 L 515,324 L 515,323 L 516,322 L 516,320 L 517,319 L 517,318 L 518,317 L 518,316 L 519,315 L 519,314 L 520,313 L 520,312 L 521,311 L 521,310 L 523,308 L 523,307 L 524,306 L 524,305 L 526,303 L 526,302 Z M 608,277 L 609,276 L 611,278 L 611,288 L 610,289 L 610,292 L 609,293 L 609,294 L 608,295 L 608,297 L 607,298 L 607,299 L 606,300 L 606,301 L 605,302 L 605,303 L 604,304 L 604,305 L 603,306 L 603,307 L 602,308 L 602,309 L 601,310 L 601,311 L 599,313 L 599,314 L 597,316 L 597,317 L 596,318 L 596,319 L 594,321 L 594,322 L 592,324 L 592,325 L 589,328 L 589,329 L 585,333 L 585,334 L 573,346 L 572,346 L 569,349 L 568,348 L 568,347 L 569,346 L 569,345 L 570,344 L 570,343 L 571,342 L 571,340 L 572,339 L 572,338 L 573,337 L 573,336 L 574,335 L 574,334 L 575,333 L 575,332 L 576,331 L 576,330 L 577,329 L 577,328 L 578,327 L 578,326 L 579,325 L 579,324 L 580,323 L 580,322 L 581,321 L 581,319 L 582,318 L 582,317 L 583,316 L 583,315 L 584,314 L 584,313 L 585,312 L 585,311 L 586,310 L 586,309 L 587,308 L 587,307 L 588,306 L 588,305 L 589,304 L 589,303 L 590,302 L 590,301 L 591,300 L 591,299 L 592,298 L 592,297 L 593,296 L 593,295 L 595,293 L 595,292 L 596,291 L 596,290 L 597,289 L 597,288 L 599,286 L 599,285 L 602,282 L 602,281 L 605,278 L 606,278 L 607,277 Z" fill="white" fill-rule="evenodd" /></svg>